<?xml version="1.0" encoding="UTF-8"?>
<svg width="24px" height="24px" viewBox="0 0 24 24" version="1.1" xmlns="http://www.w3.org/2000/svg" xmlns:xlink="http://www.w3.org/1999/xlink">
    <!-- Generator: Sketch 57 (83077) - https://sketch.com -->
    <title>待完善客户</title>
    <desc>Created with Sketch.</desc>
    <g id="页面-1" stroke="none" stroke-width="1" fill="none" fill-rule="evenodd">
        <g id="待完善客户" fill="#8C68FF" fill-rule="nonzero">
            <path d="M19.0272,24.0000104 C21.7366316,23.9724318 23.9136303,21.6660397 23.8942655,18.8436526 C23.8749008,16.0212654 21.6664774,13.7475219 18.9569442,13.7602431 C16.2474111,13.7730715 14.0588371,16.0675459 14.0639909,18.89 C14.09036,21.7241459 16.3062976,24.0056258 19.0272,24.0000104 L19.0272,24.0000104 Z M18.3744,17.43 L20.16,19.2 L22.08,17.66 C22.1957538,17.5682371 22.341819,17.5282595 22.4859252,17.5488997 C22.6300314,17.5695399 22.7603178,17.6490991 22.848,17.77 C22.9350825,17.8873374 22.9729813,18.0363365 22.9530988,18.1831956 C22.9332164,18.3300547 22.857238,18.462325 22.7424,18.55 L20.4768,20.31 C20.4768,20.31 20.4768,20.31 20.4768,20.31 C20.26176,20.5233333 19.92384,20.5233333 19.7088,20.31 L17.9424,18.52 L15.9552,20.07 C15.8409984,20.161229 15.6964496,20.2009517 15.5539073,20.180277 C15.4113649,20.1596024 15.2827321,20.0802569 15.1968,19.96 C15.1097175,19.8426626 15.0718187,19.6936635 15.0917012,19.5468044 C15.1115836,19.3999453 15.187562,19.267675 15.3024,19.18 L17.6352,17.36 C17.8614558,17.1790848 18.1831724,17.2095504 18.3744,17.43 Z" id="形状"></path>
            <ellipse id="椭圆形" cx="12.2016" cy="6.14" rx="5.9616" ry="6.14"></ellipse>
            <path d="M12.9408,18.92 C12.9380628,16.42012 14.2854522,14.1311665 16.4256,13 C16.6071091,12.9203524 16.7251297,12.7351633 16.7251297,12.53 C16.7251297,12.3248367 16.6071091,12.1396476 16.4256,12.06 C13.2572396,10.747291 9.69194281,10.9747694 6.70106813,12.6804591 C3.71019345,14.3861488 1.60535059,17.3923394 0.96,20.88 C0.937014081,21.0302461 0.979624076,21.1833366 1.07619666,21.2974748 C1.17276924,21.4116131 1.31321881,21.4748791 1.4592,21.47 L12.7392,21.47 C12.8914098,21.4754816 13.0370849,21.4053936 13.1317638,21.2811275 C13.2264427,21.1568614 13.2588891,20.993165 13.2192,20.84 C13.0334844,20.218405 12.9396109,19.5710017 12.9408,18.92 Z" id="路径"></path>
        </g>
    </g>
</svg>