<?xml version="1.0" encoding="UTF-8"?>
<svg width="24px" height="24px" viewBox="0 0 24 24" version="1.1" xmlns="http://www.w3.org/2000/svg" xmlns:xlink="http://www.w3.org/1999/xlink">
    <!-- Generator: Sketch 57 (83077) - https://sketch.com -->
    <title>个人营销总额</title>
    <desc>Created with Sketch.</desc>
    <g id="页面-1" stroke="none" stroke-width="1" fill="none" fill-rule="evenodd">
        <path d="M0,1 L0,19 C6.76353751e-17,19.5522847 0.44771525,20 1,20 L23,20 C23.5522847,20 24,19.5522847 24,19 L24,1 C24,0.44771525 23.5522847,-1.01453063e-16 23,0 L1,0 C0.44771525,1.01453063e-16 -6.76353751e-17,0.44771525 0,1 Z M20,22 C20.5522847,22 21,22.4477153 21,23 C21,23.5522847 20.5522847,24 20,24 L4,24 C3.44771525,24 3,23.5522847 3,23 C3,22.4477153 3.44771525,22 4,22 L20,22 Z M20.2,6.44 C20.4834178,6.50244847 20.7076485,6.71894707 20.78,7 C20.8692995,7.284613 20.7738517,7.59481814 20.54,7.78 L16.26,11.88 C16.0943098,12.0320252 15.8745838,12.1112706 15.65,12.1 C15.4256712,12.0932891 15.2147843,11.9914817 15.07,11.82 L13.41,9.82 C13.3013883,9.69124599 13.1352467,9.62583394 12.96801,9.64598294 C12.8007733,9.66613194 12.6549225,9.76913344 12.58,9.92 L10,15.15 C9.8443122,15.4414117 9.52894262,15.6109228 9.2,15.58 C8.87417283,15.5538698 8.59701589,15.3321443 8.5,15.02 L7.68,12.08 C7.63532514,11.9190242 7.51320563,11.7909956 7.35451887,11.7387696 C7.1958321,11.6865436 7.02154606,11.717021 6.89,11.82 L4.49,13.76 C4.14830925,14.0319414 3.65433801,13.9925986 3.36,13.67 C3.22208569,13.519696 3.15335171,13.318543 3.17044931,13.1152714 C3.18754692,12.9119999 3.28891628,12.7251546 3.45,12.6 L7.45,9.41 C7.66099281,9.24114336 7.94229876,9.18863292 8.2,9.27 C8.45937328,9.34168933 8.66347552,9.5420119 8.74,9.8 L9.17,11.35 C9.22490061,11.5499979 9.39756949,11.695341 9.60400146,11.7153183 C9.81043343,11.7352956 10.007768,11.6257593 10.1,11.44 L12,7.53 C12.1208166,7.2867602 12.3594595,7.12387696 12.63,7.1 C12.9021476,7.06359153 13.1739527,7.16929351 13.35,7.38 L15.41,9.8 C15.5027578,9.90045506 15.6332695,9.9575846 15.77,9.9575846 C15.9067305,9.9575846 16.0372422,9.90045506 16.13,9.8 L19.41,6.68 C19.6131326,6.46717244 19.9128079,6.37613183 20.2,6.44 Z" id="个人营销总额" fill="#FE666B" fill-rule="nonzero"></path>
    </g>
</svg>