<?xml version="1.0" encoding="UTF-8"?>
<svg width="20px" height="24px" viewBox="0 0 20 24" version="1.1" xmlns="http://www.w3.org/2000/svg" xmlns:xlink="http://www.w3.org/1999/xlink">
    <!-- Generator: Sketch 57 (83077) - https://sketch.com -->
    <title>新增收款记录 </title>
    <desc>Created with Sketch.</desc>
    <g id="页面-1" stroke="none" stroke-width="1" fill="none" fill-rule="evenodd">
        <path d="M7,3 L13,3 C13.5522847,3 14,2.55228475 14,2 L14,1 C14,0.44771525 13.5522847,-1.01453063e-16 13,0 L7,0 C6.44771525,1.01453063e-16 6,0.44771525 6,1 L6,2 C6,2.55228475 6.44771525,3 7,3 Z M15,2 L15,3 C15,3.55228475 14.5522847,4 14,4 L6,4 C5.44771525,4 5,3.55228475 5,3 L5,2 C5,1.44771525 4.55228475,1 4,1 L1,1 C0.44771525,1 1.70872146e-15,1.44771525 1.77635684e-15,2 L1.77635684e-15,23 C1.84399221e-15,23.5522847 0.44771525,24 1,24 L19,24 C19.5522847,24 20,23.5522847 20,23 L20,2 C20,1.44771525 19.5522847,1 19,1 L16,1 C15.4477153,1 15,1.44771525 15,2 Z M4,18 C3.44771525,18 3,17.5522847 3,17 C3,16.4477153 3.44771525,16 4,16 C4.55228475,16 5,16.4477153 5,17 C5,17.5522847 4.55228475,18 4,18 Z M4,14 C3.44771525,14 3,13.5522847 3,13 C3,12.4477153 3.44771525,12 4,12 C4.55228475,12 5,12.4477153 5,13 C5,13.5522847 4.55228475,14 4,14 Z M4,10 C3.44771525,10 3,9.55228475 3,9 C3,8.44771525 3.44771525,8 4,8 C4.55228475,8 5,8.44771525 5,9 C5,9.55228475 4.55228475,10 4,10 Z M17,18 L8,18 C7.41040565,18 7,17.5522847 7,17 C7,16.4477153 7.41040565,16 8,16 L17,16 C17.5895943,16 18,16.4477153 18,17 C18,17.5522847 17.5895943,18 17,18 Z M17,14 L8,14 C7.41040565,14 7,13.5522847 7,13 C7,12.4477153 7.41040565,12 8,12 L17,12 C17.5895943,12 18,12.4477153 18,13 C18,13.5522847 17.5895943,14 17,14 Z M17,10 L8,10 C7.41040565,10 7,9.55228475 7,9 C7,8.44771525 7.41040565,8 8,8 L17,8 C17.5895943,8 18,8.44771525 18,9 C18,9.55228475 17.5895943,10 17,10 Z" id="新增收款记录-" fill="#920CF2" fill-rule="nonzero"></path>
    </g>
</svg>