<?xml version="1.0" encoding="UTF-8"?>
<svg width="20px" height="24px" viewBox="0 0 20 24" version="1.1" xmlns="http://www.w3.org/2000/svg" xmlns:xlink="http://www.w3.org/1999/xlink">
    <!-- Generator: Sketch 57 (83077) - https://sketch.com -->
    <title>跟进中的项目</title>
    <desc>Created with Sketch.</desc>
    <g id="页面-1" stroke="none" stroke-width="1" fill="none" fill-rule="evenodd">
        <path d="M15.5,15 L15.7130262,15.004863 C18.1126531,15.1146939 20,17.0714286 20,19.5 C20,22 18,24 15.5,24 C13,24 11,22 11,19.5 C11,17 13,15 15.5,15 L15.5,15 Z M19,-7.10542736e-15 C19.5128358,-7.19963377e-15 19.9355072,0.38604019 19.9932723,0.883378875 L20,1 L20.0008195,14.8103588 C18.8328473,13.6891263 17.2469007,13 15.5,13 C11.9101491,13 9,15.9101491 9,19.5 C9,21.2469007 9.68912635,22.8328473 10.8103588,24.0008195 L1,24 C0.487164161,24 0.0644928393,23.6139598 0.00672773133,23.1166211 L1.0658141e-14,23 L1.0658141e-14,1 C1.05953368e-14,0.487164161 0.38604019,0.0644928393 0.883378875,0.00672773133 L1,-7.10542736e-15 L19,-7.10542736e-15 Z M16.9,17.6 C16.7,17.4 16.4,17.4 16.2,17.6 L16.2,17.6 L16.1407407,17.670096 C16.0024691,17.8654321 16.0222222,18.1222222 16.2,18.3 L16.2,18.3 L16.8,18.9 L13.6,18.9 C13.3,18.9 13.1,19.1 13.1,19.4 C13.1,19.7 13.3,19.9 13.6,19.9 L13.6,19.9 L16.8,19.9 L16.2,20.5 L16.1407407,20.570096 C16.0024691,20.7654321 16.0222222,21.0222222 16.2,21.2 C16.4,21.4 16.7,21.4 16.9,21.2 L16.9,21.2 L18.3,19.8 C18.5,19.7 18.5,19.3 18.3,19 L18.3,19 Z M9.09090909,14 L3.63636364,14 C3.09090909,14 2.72727273,14.4 2.72727273,15 C2.72727273,15.5571429 3.04081633,15.9418367 3.52232971,15.9939504 L3.63636364,16 L9.09090909,16 C9.63636364,16 10,15.6 10,15 C10,14.4 9.63636364,14 9.09090909,14 Z M12.7272727,9 L3.63636364,9 C3.09090909,9 2.72727273,9.4 2.72727273,10 C2.72727273,10.5571429 3.04081633,10.9418367 3.52232971,10.9939504 L3.63636364,11 L12.7272727,11 C13.2727273,11 13.6363636,10.6 13.6363636,10 C13.6363636,9.4 13.2727273,9 12.7272727,9 Z M16.3636364,3.8 L3.63636364,3.8 C3.09090909,3.8 2.72727273,4.2 2.72727273,4.8 C2.72727273,5.35714286 3.04081633,5.74183673 3.52232971,5.79395044 L3.63636364,5.8 L16.3636364,5.8 C16.9090909,5.8 17.2727273,5.4 17.2727273,4.8 C17.2727273,4.2 16.9090909,3.8 16.3636364,3.8 Z" id="跟进中的项目" fill="#FFAD0A" fill-rule="nonzero"></path>
    </g>
</svg>