<?xml version="1.0" encoding="UTF-8"?>
<svg width="24px" height="24px" viewBox="0 0 24 24" version="1.1" xmlns="http://www.w3.org/2000/svg" xmlns:xlink="http://www.w3.org/1999/xlink">
    <!-- Generator: Sketch 57 (83077) - https://sketch.com -->
    <title>待结算薪酬</title>
    <desc>Created with Sketch.</desc>
    <g id="页面-1" stroke="none" stroke-width="1" fill="none" fill-rule="evenodd">
        <g id="待结算薪酬" fill="#2DD15C">
            <path d="M22.8,15.7 C21.8,16.2 21.1,16.4 20.5,16.5 C19.1,16.8 17.8,17 16.3,17 C14.8,17 13.5,16.9 12.1,16.6 C11.5,16.5 10.7,16.2 9.7,15.7 C9.4,15.5 9,15.6 9,15.9 L9,16 L9,16.9 C9,17.4 9.3,17.8 10,18.2 C10.9,18.7 11.7,19 12.6,19.2 C13.8,19.4 15,19.5 16.3,19.5 C17.6,19.5 18.7,19.4 20,19.1 C21,18.9 21.8,18.6 22.6,18.1 C23.3,17.7 23.6,17.3 23.6,16.8 L23.6,16 C23.6,15.6 23.2,15.5 22.8,15.7 Z" id="路径"></path>
            <path d="M12.6,4.9 C9.6,5.5 9,6.5 9,7.3 L9,8.8 C9,9.4 9.4,9.9 10,10.3 C10.8,10.8 11.7,11.2 12.6,11.4 C13.8,11.7 15,11.8 16.3,11.8 C17.6,11.8 18.7,11.7 20,11.4 C21,11.2 21.8,10.8 22.7,10.3 C23.2,10 23.7,9.4 23.7,8.8 L23.7,7.3 C23.7,4.2 13.7,4.6 12.6,4.9 Z" id="路径"></path>
            <path d="M14,3.9 L16.1,3.7 C16.4,3.7 16.7,3.4 16.7,3.1 C16.7,2.6 16.3,2.1 15.6,1.7 C14.6,1.2 13.7,0.9 12.6,0.7 C11.1,0.4 9.8,0.3 8.4,0.3 C6.9,0.3 5.6,0.4 4.2,0.7 C3.1,0.9 2.2,1.3 1.2,1.8 C0.7,2.2 0.3,2.7 0.3,3.2 L0.3,4.6 C0.3,5.1 0.7,5.6 1.4,6 C2.4,6.5 3.3,6.8 4.4,7 C5.2,7.2 5.9,7.3 7.3,7.4 C7.8,7.4 8.1,7 8.2,6.6 C9.1,4.4 11.1,4.3 14,3.9 Z" id="路径"></path>
            <path d="M7.5,12.5 C7.9,12.5 8,12.2 8,12 L8,9.6 C8,9.3 7.8,9.1 7.5,9.1 C6.1,9.1 4.9,8.9 3.6,8.6 C2.7,8.4 1.8,8.1 1,7.6 C0.7,7.4 0.5,7.4 0.4,7.6 C0.3,7.8 0.3,8.7 0.3,8.7 C0.3,9.4 0.5,10.2 1.1,10.7 C1.5,11.1 3.6,12.2 7.5,12.5 Z" id="路径"></path>
            <path d="M1.3,15 C3.4,16.4 6.4,16.6 7.5,16.6 C7.8,16.6 8,16.4 8,16.1 L8,13.8 C8,13.5 7.8,13.3 7.5,13.3 L7.5,13.3 C6.1,13.3 4.9,13.1 3.6,12.8 C2.7,12.6 1.9,12.2 1,11.7 C0.8,11.6 0.5,11.5 0.3,11.8 C0.2,11.9 0.2,12.6 0.2,12.6 C0.2,13.5 0.6,14.4 1.3,15 L1.3,15 Z" id="路径"></path>
            <path d="M3.7,17 C2.8,16.8 2,16.4 1.1,15.9 C0.9,15.8 0.6,15.8 0.4,16 C0.3,16.1 0.3,16.2 0.3,16.3 L0.3,17.6 C0.4,18.3 0.7,18.7 1.4,19.2 C2.3,19.8 3.2,20.2 4.3,20.5 C5.4,20.8 6.5,20.9 7.6,20.9 C7.9,20.9 8.1,20.7 8.1,20.4 L8.1,18 C8.1,17.7 7.9,17.5 7.6,17.5 C6.7,17.4 4.8,17.2 3.7,17 Z" id="路径"></path>
            <path d="M22.8,19.8 C21.8,20.3 21.1,20.6 20.5,20.7 C19.1,21 17.8,21.2 16.3,21.2 C14.9,21.2 13.5,21.1 12.1,20.8 C11.5,20.7 10.6,20.4 9.7,19.9 C9.4,19.7 9,19.8 9,20.1 L9,21.1 C9,21.6 9.3,22 10,22.4 C10.8,22.9 11.7,23.2 12.6,23.4 C13.8,23.6 15,23.8 16.2,23.7 C17.5,23.7 18.6,23.6 19.9,23.3 C20.9,23.1 21.7,22.8 22.5,22.3 C23.2,21.9 23.5,21.4 23.5,21 L23.5,20.1 C23.5,19.7 23.1,19.6 22.8,19.8 Z" id="路径"></path>
            <path d="M22.8,11.3 C21.8,11.8 21.1,12.1 20.5,12.2 C19.1,12.5 17.7,12.7 16.3,12.7 C14.8,12.7 13.5,12.6 12.1,12.3 C11.5,12.2 10.7,12 9.8,11.4 C9.4,11.2 9,11.5 9,11.9 L9,12.6 C9,13.1 9.2,13.5 9.9,13.9 C10.7,14.4 11.6,14.7 12.5,14.8 C13.7,15 14.9,15.2 16.2,15.1 C17.5,15.1 18.6,15 19.9,14.7 C20.9,14.5 21.7,14.2 22.6,13.7 C23.3,13.3 23.5,13 23.5,12.5 L23.5,11.7 C23.5,11.3 23.1,11.1 22.8,11.3 Z" id="路径"></path>
        </g>
    </g>
</svg>