<?xml version="1.0" encoding="UTF-8"?>
<svg width="24px" height="24px" viewBox="0 0 24 24" version="1.1" xmlns="http://www.w3.org/2000/svg" xmlns:xlink="http://www.w3.org/1999/xlink">
    <!-- Generator: Sketch 57 (83077) - https://sketch.com -->
    <title>待投标项目</title>
    <desc>Created with Sketch.</desc>
    <g id="页面-1" stroke="none" stroke-width="1" fill="none" fill-rule="evenodd">
        <g id="待投标项目" fill="#2D64BD" fill-rule="nonzero">
            <path d="M22.8,10.8 L22.33,10.8 C21.7695477,6.00892426 17.9910757,2.23045233 13.2,1.67 L13.2,1.2 C13.2,0.5372583 12.6627417,0 12,0 C11.3372583,0 10.8,0.5372583 10.8,1.2 L10.8,1.67 C6.00892426,2.23045233 2.23045233,6.00892426 1.67,10.8 L1.2,10.8 C0.5372583,10.8 0,11.3372583 0,12 C0,12.6627417 0.5372583,13.2 1.2,13.2 L1.67,13.2 C2.23045233,17.9910757 6.00892426,21.7695477 10.8,22.33 L10.8,22.8 C10.8,23.4627417 11.3372583,24 12,24 C12.6627417,24 13.2,23.4627417 13.2,22.8 L13.2,22.33 C17.9910757,21.7695477 21.7695477,17.9910757 22.33,13.2 L22.8,13.2 C23.4627417,13.2 24,12.6627417 24,12 C24,11.3372583 23.4627417,10.8 22.8,10.8 Z M12,16 C9.790861,16 8,14.209139 8,12 C8,9.790861 9.790861,8 12,8 C14.209139,8 16,9.790861 16,12 C16,14.209139 14.209139,16 12,16 L12,16 Z"></path>
        </g>
    </g>
</svg>