<?xml version="1.0" encoding="UTF-8"?>
<svg width="25px" height="25px" viewBox="0 0 25 25" version="1.1" xmlns="http://www.w3.org/2000/svg" xmlns:xlink="http://www.w3.org/1999/xlink">
    <!-- Generator: Sketch 57 (83077) - https://sketch.com -->
    <title>待存档数据</title>
    <desc>Created with Sketch.</desc>
    <g id="页面-1" stroke="none" stroke-width="1" fill="none" fill-rule="evenodd">
        <g id="待存档数据" transform="translate(-1.000000, -1.000000)" fill="#00D9D9" fill-rule="nonzero">
            <path d="M23.08,13.61 L13.56,13.61 C13.0077153,13.61 12.56,13.1622847 12.56,12.61 L12.56,3.1 C12.5617327,2.81457654 12.4414153,2.54201558 12.2293529,2.35096831 C12.0172904,2.15992104 11.733696,2.06859758 11.45,2.1 C5.37544066,2.68694797 0.801289763,7.89119537 0.998818777,13.9908479 C1.19634779,20.0905005 6.09762685,24.9878989 12.197434,25.1805964 C18.2972411,25.373294 23.4978637,20.7950223 24.08,14.72 C24.1114024,14.436304 24.020079,14.1527096 23.8290317,13.9406471 C23.6379844,13.7285847 23.3654235,13.6082673 23.08,13.61 Z" id="路径"></path>
            <path d="M25.17,10.28 C24.6433809,5.38949164 20.7805084,1.52661914 15.89,1 C15.6046903,0.965506008 15.3183311,1.05542857 15.1039581,1.24683307 C14.8895851,1.43823758 14.7679224,1.71262016 14.7699738,2 L14.7699738,10.91 C14.7699738,11.1861424 14.9938576,11.4100361 15.27,11.4100361 L24.17,11.4100361 C24.4593572,11.4124569 24.735592,11.2894517 24.9273608,11.0727529 C25.1191296,10.8560542 25.2076282,10.5669107 25.17,10.28 Z" id="路径"></path>
        </g>
    </g>
</svg>