<?xml version="1.0" encoding="UTF-8"?>
<svg width="20px" height="24px" viewBox="0 0 20 24" version="1.1" xmlns="http://www.w3.org/2000/svg" xmlns:xlink="http://www.w3.org/1999/xlink">
    <!-- Generator: Sketch 57 (83077) - https://sketch.com -->
    <title>待处理发票</title>
    <desc>Created with Sketch.</desc>
    <g id="页面-1" stroke="none" stroke-width="1" fill="none" fill-rule="evenodd">
        <path d="M0,1.00953767 L0,20.8955043 L0,20.8955043 C0,24.8999589 2.18181818,24.0933557 2.72727273,23.4937586 L4.09090909,21.9947657 C4.27272727,21.7949 4.54545455,21.7949 4.72727273,21.9947657 L6.09090909,23.4937586 C6.72727273,24.0933557 7.63636364,24.0933557 8.36363636,23.4937586 L9.36363636,22.3944972 C9.72727273,21.9947657 10.3636364,21.9947657 10.7272727,22.3944972 L11.7272727,23.4937586 C12.3636364,24.0933557 13.2727273,24.0933557 13.9090909,23.4937586 L15.2727273,21.9947657 C15.4545455,21.7949 15.7272727,21.7949 15.9090909,21.9947657 C16.8181818,22.8608505 17.2727273,23.2938929 17.2727273,23.2938929 C17.2727273,23.2938929 20,25.7370425 20,21.5950343 L20,1.00953767 C20,0.457252917 19.5522847,0.0095376671 19,0.0095376671 L1,0.0095376671 C0.44771525,0.0095376671 -6.76353751e-17,0.457252917 0,1.00953767 Z M10,14.973007 L4,14.973007 C3.4,14.973007 3,14.5737273 3,13.9748077 C3,13.3758881 3.4,12.9766084 4,12.9766084 L10,12.9766084 C10.6,12.9766084 11,13.3758881 11,13.9748077 C11,14.5737273 10.6,14.973007 10,14.973007 Z M13.0833333,9.98201039 L3.91666667,9.98201039 C3.36666667,9.98201039 3,9.58273067 3,8.98381107 C3,8.38489148 3.36666667,7.98561175 3.91666667,7.98561175 L13.0833333,7.98561175 C13.6333333,7.98561175 14,8.38489148 14,8.98381107 C14,9.58273067 13.6333333,9.98201039 13.0833333,9.98201039 Z M16,4.99101378 L4,4.99101378 C3.4,4.99101378 3,4.59173406 3,3.99281446 C3,3.39389487 3.4,2.99461514 4,2.99461514 L16,2.99461514 C16.6,2.99461514 17,3.39389487 17,3.99281446 C17,4.59173406 16.6,4.99101378 16,4.99101378 Z" id="待处理发票" fill="#30DDA2" fill-rule="nonzero"></path>
    </g>
</svg>