<?xml version="1.0" encoding="UTF-8"?>
<svg width="22px" height="24px" viewBox="0 0 22 24" version="1.1" xmlns="http://www.w3.org/2000/svg" xmlns:xlink="http://www.w3.org/1999/xlink">
    <!-- Generator: Sketch 57 (83077) - https://sketch.com -->
    <title>已过期员工icon</title>
    <desc>Created with Sketch.</desc>
    <g id="页面-1" stroke="none" stroke-width="1" fill="none" fill-rule="evenodd">
        <path d="M21,0 C21.5522847,0 22,0.44771525 22,1 L22,23 C22,23.5522847 21.5522847,24 21,24 L1,24 C0.44771525,24 0,23.5522847 0,23 L0,1 C0,0.44771525 0.44771525,0 1,0 L21,0 Z M7.00064625,7 C5.36211236,7 4.02791339,8.30976381 4.02791339,9.92191927 C4.02642432,10.9902237 4.63218176,11.9741838 5.60770498,12.4880485 C3.75280246,13.0159727 2.3632523,14.498443 2.01130442,16.3249425 C1.95682717,16.5872522 2.10399762,16.8435382 2.35046171,16.945237 L2.35046171,16.945237 L2.46186997,16.9789245 L11.4306869,17 L11.4840413,16.9980059 L11.5369229,16.9909241 C11.8479284,16.9294447 12.0496068,16.639265 11.9893631,16.3399421 C11.6441362,14.5068584 10.2527373,13.0168715 8.39233765,12.4880485 C9.36834364,11.9744998 9.97461805,10.9904786 9.97337906,9.92191927 C9.97337911,8.31216376 8.63855515,7 7.00064625,7 Z M19.4015353,15 L13.5990824,15 L13.5277865,15.0099048 C13.2452317,15.0878145 13,15.60927 13,16.0003751 C13,16.3763281 13.2274027,16.8737473 13.4965556,16.9796436 L13.4965556,16.9796436 L13.5990824,17 L19.4015353,17 L19.4728208,16.9900956 C19.7552946,16.91219 20,16.3907877 20,16.0003751 C20,15.5774279 19.712811,15 19.4015353,15 L19.4015353,15 Z M17.4149549,11 L13.5850451,11 L13.5152906,11.0098959 C13.238926,11.0877364 13,11.6087483 13,12 C13,12.3767609 13.2215556,12.8738482 13.4847476,12.9796606 L13.4847476,12.9796606 L13.5850451,13 L17.4149549,13 L17.4847094,12.9901042 C17.761074,12.9122636 18,12.3912518 18,12 C18,11.576144 17.7195937,11 17.4149549,11 L17.4149549,11 Z M17.4149549,7 L13.5850451,7 L13.5152906,7.00990477 C13.238926,7.08781447 13,7.60927005 13,8.00037501 C13,8.37632802 13.2215556,8.87374729 13.4847476,8.97964359 L13.4847476,8.97964359 L13.5850451,9 L17.4149549,9 L17.4847094,8.99009557 C17.761074,8.91218998 18,8.39078774 18,8.00037501 C18,7.57742784 17.7195937,7 17.4149549,7 L17.4149549,7 Z" id="已过期员工icon" fill="#FE666B" fill-rule="nonzero"></path>
    </g>
</svg>