<?xml version="1.0" encoding="UTF-8"?>
<svg width="24px" height="24px" viewBox="0 0 24 24" version="1.1" xmlns="http://www.w3.org/2000/svg" xmlns:xlink="http://www.w3.org/1999/xlink">
    <!-- Generator: Sketch 57 (83077) - https://sketch.com -->
    <title>业务设置icon</title>
    <desc>Created with Sketch.</desc>
    <g id="页面-1" stroke="none" stroke-width="1">
        <path d="M10.5379751,9.20797435 C9.74229899,7.96130783 8.25857102,7.33885901 6.81325054,7.64538981 C5.36793005,7.95192062 4.26350416,9.12327807 4.04071925,10.5859449 C3.81793434,12.0486117 4.52341646,13.4964704 5.81174911,14.2206239 C7.10008176,14.9447774 8.70163339,14.7936695 9.83225606,13.8412854 L14.726548,16.6749346 C14.4051269,17.9308863 15.0334278,19.2361698 16.2147332,19.7666121 C17.3960386,20.2970544 18.7871132,19.8985323 19.5096143,18.8226779 C20.2321154,17.7468235 20.076116,16.3062326 19.1401162,15.4105132 C18.2041164,14.5147939 16.7600765,14.4242025 15.7197821,15.1959398 L10.8646968,12.3884675 C11.0193704,11.985348 11.0990962,11.557289 11.0999365,11.1254322 L11.0999365,10.9225612 L15.5629557,8.64517104 C16.4981416,9.48654296 17.8938422,9.55720502 18.9089838,8.81457502 C19.9241254,8.07194502 20.2814091,6.71888185 19.7655294,5.57076514 C19.2496497,4.42264844 18.0015259,3.79310097 16.7732992,4.0614991 C15.5450724,4.32989723 14.6722487,5.42292458 14.6808069,6.68190366 C14.6804066,6.82433894 14.6913319,6.96658001 14.7134791,7.10727826 L10.5379751,9.20797435 Z M24,1 L24,23 C24,23.5522847 23.5522847,24 23,24 L1,24 C0.44771525,24 6.76353751e-17,23.5522847 0,23 L0,1 C-6.76353751e-17,0.44771525 0.44771525,2.76598832e-15 1,2.66453526e-15 L23,2.66453526e-15 C23.5522847,2.5630822e-15 24,0.44771525 24,1 Z" id="业务设置icon"></path>
    </g>
</svg>