<?xml version="1.0" encoding="UTF-8"?>
<svg width="41px" height="41px" viewBox="0 0 41 41" version="1.1" xmlns="http://www.w3.org/2000/svg" xmlns:xlink="http://www.w3.org/1999/xlink">
    <!-- Generator: Sketch 57 (83077) - https://sketch.com -->
    <title>默认头像</title>
    <desc>Created with Sketch.</desc>
    <g id="页面-1" stroke="none" stroke-width="1" fill="none" fill-rule="evenodd">
        <g id="默认头像" transform="translate(0.230000, 0.090000)">
            <circle id="椭圆形" fill="#1588F8" fill-rule="nonzero" opacity="0.4" cx="20" cy="20" r="20"></circle>
            <path d="M24.18,26.76 C23.41,26.24 22.37,26.42 21.78,27.14 C21.3,27.74 20.56,28.12 19.73,28.12 C18.96,28.12 18.26,27.79 17.78,27.26 C17.15,26.57 16.12,26.43 15.41,27.04 C14.16,28.11 13.37,29.63 13.37,31.3 C13.37,33.35 16.22,33.95 19.73,33.95 C23.24,33.95 26.62,33.35 26.62,31.3 C26.62,29.29 25.64,27.75 24.18,26.76 Z" id="路径" fill="#1588F8" fill-rule="nonzero"></path>
            <circle id="椭圆形" fill="#1588F8" fill-rule="nonzero" cx="20" cy="16.28" r="10.22"></circle>
            <path d="M16.02,19.71 C16.69,20.72 18.7,21.39 20,21.39 C21.29,21.39 23.3,20.73 23.97,19.73" id="路径" stroke="#FFFFFF" stroke-width="2" stroke-linecap="round"></path>
        </g>
    </g>
</svg>