<?xml version="1.0" encoding="UTF-8"?>
<svg width="22px" height="24px" viewBox="0 0 22 24" version="1.1" xmlns="http://www.w3.org/2000/svg" xmlns:xlink="http://www.w3.org/1999/xlink">
    <!-- Generator: Sketch 57 (83077) - https://sketch.com -->
    <title>成本合计icon </title>
    <desc>Created with Sketch.</desc>
    <g id="页面-1" stroke="none" stroke-width="1" fill="none" fill-rule="evenodd">
        <path d="M11.1746962,0 C13.0673294,0 13.1624393,1.18878884 13.166556,1.49111015 L13.1666667,1.54285713 L13.5,1.54285713 C13.5,1.54285716 13.6666667,1.37142858 13.8333333,1.37142858 C14.1666667,1.2 14.6666667,1.2 15,1.2 C16.8333333,1.2 18.3333333,2.4 18.3333333,3.94285713 C18.3333333,4.97142855 17.6666667,5.82857142 16.8333333,6.34285713 C17,6.34285713 17,6.51428571 17.1666667,6.51428571 C17.8333333,7.02857142 18.5,7.54285713 19,8.22857142 C20.8333333,9.94285713 21.8333333,12.1714286 22,14.4 C22,20.9142857 17,24 11.1666667,24 L11.1666667,24 L10.8333333,24 C4.83333334,24 -1.77635684e-15,20.9142857 -1.77635684e-15,14.4 C-1.77635684e-15,12 1.16666667,9.94285713 3,8.05714287 C3.5,7.37142855 4.16666667,6.85714284 4.66666667,6.34285713 C4.83333332,6.34285716 5,6.17142858 5,6.17142858 C4.16666667,5.65714287 3.5,4.8 3.5,3.77142858 C3.5,2.22857142 5.16666666,1.02857142 6.83333333,1.02857142 C7.33333333,1.02857142 7.66666667,1.2 8,1.37142858 C8.16666667,1.37142858 8.33333334,1.54285713 8.33333334,1.54285713 L8.33333334,1.54285713 L8.5,1.54285713 C8.66666667,1.2 9.1418679,0 11.1746962,0 Z M14,9 C13.3871339,9 12.8268684,9.34626312 12.5527864,9.89442719 L12.5527864,9.89442719 L11,13 L9.4472136,9.89442719 C9.17313156,9.34626312 8.61286606,9 8,9 C7.90405325,9 7.80942418,9.0223389 7.7236068,9.06524758 C7.4183113,9.21789533 7.29456584,9.58913169 7.4472136,9.89442719 L7.4472136,9.89442719 L9,13 L8,13 C7.44771525,13 7,13.4477153 7,14 C7,14.5522847 7.44771525,15 8,15 L8,15 L10,15 L10,16 L8,16 C7.44771525,16 7,16.4477153 7,17 C7,17.5522847 7.44771525,18 8,18 L8,18 L10,18 L10,19 C10,19.5522847 10.4477153,20 11,20 C11.5522847,20 12,19.5522847 12,19 L12,19 L12,18 L14,18 C14.5522847,18 15,17.5522847 15,17 C15,16.4477153 14.5522847,16 14,16 L14,16 L12,16 L12,15 L14,15 C14.5522847,15 15,14.5522847 15,14 C15,13.4477153 14.5522847,13 14,13 L14,13 L13,13 L14.5527864,9.89442719 C14.5956951,9.80860981 14.618034,9.71398073 14.618034,9.61803399 C14.618034,9.27670324 14.3413307,9 14,9 Z" id="成本合计icon-" fill="#FF5D62" fill-rule="nonzero"></path>
    </g>
</svg>