<?xml version="1.0" encoding="UTF-8"?>
<svg width="24px" height="21px" viewBox="0 0 24 21" version="1.1" xmlns="http://www.w3.org/2000/svg" xmlns:xlink="http://www.w3.org/1999/xlink">
    <!-- Generator: Sketch 57 (83077) - https://sketch.com -->
    <title>形状</title>
    <desc>Created with Sketch.</desc>
    <g id="页面-1" stroke="none" stroke-width="1">
        <path d="M3.82296168,4.55663655 C3.82296168,7.04191792 5.8376803,9.05663655 8.32296168,9.05663655 C10.8082431,9.05663655 12.8229617,7.04191792 12.8229617,4.55663655 C12.8229617,2.07135518 10.8082431,0.05663655 8.32296168,0.05663655 C5.8376803,0.05663655 3.82296168,2.07135518 3.82296168,4.55663655 L3.82296168,4.55663655 Z M14.7320365,6.65390614 C14.731948,7.81507833 15.3513751,8.88808357 16.356965,9.46869523 C17.3625548,10.0493069 18.6015182,10.0493069 19.6071081,9.46869523 C20.6126979,8.88808357 21.2321251,7.81507833 21.2320365,6.65390614 C21.2318996,4.85907749 19.7768652,3.40415398 17.9820365,3.40415398 C16.1872079,3.40415398 14.7321734,4.85907749 14.7320365,6.65390614 L14.7320365,6.65390614 Z M12.6033999,10.6699031 C11.1237196,10.6699031 11.0110535,11.8241284 8.47231262,11.8241285 C5.99366025,11.8241285 5.80738578,10.6699031 4.34122536,10.6699031 C2.96369552,10.6699031 2.00978993,11.5230962 1.4539709,12.2877503 C0.618740172,13.4355365 -0.103824548,15.3350984 0.00583704468,16.6760603 C0.0959698608,17.7675035 0.600713605,20.0566366 8.47231262,20.0566366 C16.5767547,20.0566366 16.8366377,17.6210118 16.9057395,16.6277663 C16.9898635,15.3978805 16.4280356,13.2407509 15.2427891,11.9657907 C14.4270872,11.0868409 13.6008697,10.6699031 12.6033999,10.6699031 Z M20.7093442,10.6727996 C20.262579,10.7006063 19.3681617,10.8670058 18.0260923,11.171998 L18.0261021,11.1720411 C17.4875728,11.2944247 17.1502201,11.8302004 17.2726037,12.3687297 C17.2846005,12.4215198 17.3008645,12.4732484 17.3212352,12.5234056 C17.9345693,14.0335691 18.216704,15.1467592 18.1676393,15.862976 C18.158163,16.0081173 18.1318693,16.3129981 18.0887582,16.7776184 L18.0887881,16.7776212 C18.0377635,17.3275272 18.4421868,17.8146777 18.9920928,17.8657023 C19.0588856,17.8718999 19.1261326,17.8713609 19.1928175,17.8640935 C20.1206326,17.7629791 20.8464662,17.6275038 21.3703182,17.4576675 C23.0227531,16.9128971 23.7363045,16.4176513 23.9285879,15.862976 C24.1208712,15.3083006 23.8895303,13.8539287 23.296156,12.8238174 C22.7027816,11.7920552 21.8540309,10.6034652 20.7093442,10.6727996 Z" id="形状"></path>
    </g>
</svg>