<?xml version="1.0" encoding="UTF-8"?>
<svg width="16px" height="16px" viewBox="0 0 16 16" version="1.1" xmlns="http://www.w3.org/2000/svg" xmlns:xlink="http://www.w3.org/1999/xlink">
    <!-- Generator: Sketch 57 (83077) - https://sketch.com -->
    <title>页面删除icon</title>
    <desc>Created with Sketch.</desc>
    <g id="页面-1" stroke="none" stroke-width="1">
        <path d="M8,0 C10.209139,0 12,1.790861 12,4 L15,4 C15.5522847,4 16,4.44771525 16,5 C16,5.55228475 15.5522847,6 15,6 L14,6 L14,15 C14,15.5522847 13.5522847,16 13,16 L3,16 C2.44771525,16 2,15.5522847 2,15 L2,6 L1,6 C0.44771525,6 0,5.55228475 0,5 C0,4.44771525 0.44771525,4 1,4 L4,4 C4,1.790861 5.790861,0 8,0 Z M12,6 L4,6 L4,14 L12,14 L12,6 Z M6,7 C6.55228475,7 7,7.44771525 7,8 L7,12 C7,12.5522847 6.55228475,13 6,13 C5.44771525,13 5,12.5522847 5,12 L5,8 C5,7.44771525 5.44771525,7 6,7 Z M10,7 C10.5522847,7 11,7.44771525 11,8 L11,12 C11,12.5522847 10.5522847,13 10,13 C9.44771525,13 9,12.5522847 9,12 L9,8 C9,7.44771525 9.44771525,7 10,7 Z M8,2 C6.8954305,2 6,2.8954305 6,4 L10,4 C10,2.8954305 9.1045695,2 8,2 Z"></path>
    </g>
</svg>