<?xml version="1.0" encoding="UTF-8"?>
<svg width="22px" height="24px" viewBox="0 0 22 24" version="1.1" xmlns="http://www.w3.org/2000/svg" xmlns:xlink="http://www.w3.org/1999/xlink">
    <!-- Generator: Sketch 57 (83077) - https://sketch.com -->
    <title>编辑资料icon</title>
    <desc>Created with Sketch.</desc>
    <g id="页面-1" stroke="none" stroke-width="1" fill="none" fill-rule="evenodd">
        <path d="M20.3601542,20.8676108 C21.265816,20.8676108 22,21.56882 22,22.4338054 C22,23.2987908 21.265816,24 20.3601542,24 L1.77523465,24 C0.869572797,24 0.135388807,23.2987908 0.135388807,22.4338054 C0.135388807,21.56882 0.869572797,20.8676108 1.77523465,20.8676108 L20.3601542,20.8676108 Z M10.434615,2.87100098 L17.5155304,9.63388765 L7.7643708,18.9470885 C7.39085451,19.3038289 6.88621014,19.5049697 6.36567147,19.5239453 L1.1404168,19.5998475 C0.536432982,19.5543062 0.0675508359,19.0875076 0,18.5106508 L0.0794715671,13.5200807 C0.0794715671,13.0229212 0.305965486,12.5409422 0.683455385,12.1842018 L10.434615,2.87100098 Z M16.4903474,0.757124513 L19.7447075,3.86531989 C20.8016792,4.87481924 20.8016792,6.52189716 19.7447075,7.53519162 L18.3897175,8.79516827 L11.3127757,2.0322816 L12.6478978,0.757124513 C13.7048694,-0.252374838 15.4294022,-0.252374838 16.4903474,0.757124513 Z" id="编辑资料icon" fill="#1588F8" fill-rule="nonzero"></path>
    </g>
</svg>