<svg xmlns="http://www.w3.org/2000/svg" width="24" height="23.906" viewBox="0 0 24 23.906">
  <defs>
    <style>
      .cls-1 {
        fill: #264480;
        fill-rule: evenodd;
      }
    </style>
  </defs>
  <path id="公司分组" class="cls-1" d="M1149,544a1,1,0,0,1-1,1l-11,6-11-6a1,1,0,0,1-1-1,0.908,0.908,0,0,0,0-1,1,1,0,0,1,1-1l11,6,11-6a1,1,0,0,1,1,1A0.908,0.908,0,0,0,1149,544Zm-1-4-11,6-11-6a1,1,0,0,1-1-1,0.908,0.908,0,0,0,0-1,1,1,0,0,1,1-1l11,6,11-6a1,1,0,0,1,1,1,0.908,0.908,0,0,0,0,1A1,1,0,0,1,1148,540Zm-22.9-6,11.9-6.9,11.9,6.9-11.9,6.9Z" transform="translate(-1125 -527.094)"/>
</svg>
