<?xml version="1.0" encoding="UTF-8"?>
<svg width="22px" height="24px" viewBox="0 0 22 24" version="1.1" xmlns="http://www.w3.org/2000/svg" xmlns:xlink="http://www.w3.org/1999/xlink">
    <!-- Generator: Sketch 57 (83077) - https://sketch.com -->
    <title>财务管理icon</title>
    <desc>Created with Sketch.</desc>
    <g id="页面-1" stroke="none" stroke-width="1">
        <path d="M11,8.8817842e-16 C5.00087502,3.10533332 0,2.89466668 0,2.89466668 L0,9.316 C1.11099999,21.316 11,24 11,24 C11,24 20.889,21.316 22,9.316 L22,2.89466668 C22,2.89466668 16.999125,3.10533332 11,8.8817842e-16 Z M15.9985113,10.0066977 C15.9985113,10.5551666 15.5538893,10.9997886 15.0054204,10.9997886 L12.0638515,10.9997886 L12.0638515,10.9997886 L12.0638515,13.0111208 L14.9967604,13.0111208 C15.5508343,13.0111208 16,13.4602865 16,14.0143604 C16,14.5684343 15.5508343,15.0176 14.9967604,15.0176 L12.0638515,15.0176 L12.0638515,15.0176 L12.0638515,16.9406146 C12.0638515,17.525697 11.5895485,18 11.0044662,18 C10.4193838,18 9.94508077,17.525697 9.94508077,16.9406146 L9.94508077,15.0176 L9.94508077,15.0176 L7.00323963,15.0176 C6.44916568,15.0176 6,14.5684343 6,14.0143604 C6,13.4602865 6.44916568,13.0111208 7.00323963,13.0111208 L9.94508077,13.0111208 L9.94508077,13.0111208 L9.94508077,10.9997886 L6.99309094,10.9997886 C6.44462196,10.9997886 6,10.5551666 6,10.0066977 C6,9.45822868 6.44462196,9.01360672 6.99309094,9.01360672 L8.8047291,9.01360672 L8.8047291,9.01360672 L7.45510506,6.95689806 C7.14980812,6.4916523 7.27947225,5.86700402 7.74471801,5.56170708 C7.78776389,5.53346012 7.83291154,5.50855411 7.87976425,5.48720788 C8.49789855,5.20558414 9.22901631,5.40932153 9.612419,5.97003922 L11,7.99934475 L11,7.99934475 L12.3683876,5.99665542 C12.7631146,5.41895679 13.5136256,5.20480404 14.1537765,5.48720788 C14.6622988,5.71154351 14.8926776,6.30564225 14.668342,6.81416456 C14.6438369,6.86971264 14.6143553,6.92292923 14.580258,6.97316334 L13.1952709,9.01360672 L13.1952709,9.01360672 L15.0054204,9.01360672 C15.5538893,9.01360672 15.9985113,9.45822868 15.9985113,10.0066977 Z" id="财务管理icon"></path>
    </g>
</svg>