<?xml version="1.0" encoding="UTF-8"?>
<svg width="22px" height="24px" viewBox="0 0 22 24" version="1.1" xmlns="http://www.w3.org/2000/svg" xmlns:xlink="http://www.w3.org/1999/xlink">
    <!-- Generator: Sketch 57 (83077) - https://sketch.com -->
    <title>毛利icon</title>
    <desc>Created with Sketch.</desc>
    <g id="页面-1" stroke="none" stroke-width="1" fill="none" fill-rule="evenodd">
        <path d="M21,0 C21.5522847,-1.01453063e-16 22,0.44771525 22,1 L22,23 C22,23.5522847 21.5522847,24 21,24 L1,24 C0.44771525,24 6.76353751e-17,23.5522847 0,23 L0,1 C-6.76353751e-17,0.44771525 0.44771525,1.01453063e-16 1,0 L21,0 Z M14.8648572,6 C13.136,6.91885713 9.25314287,7.61828571 5.31542858,7.74171429 C5.60428571,8.31857142 5.68657145,8.55171429 5.83742858,9.12771429 C7.27742858,9.018 8.77314287,8.86714284 9.65085716,8.74371429 L9.65085716,8.74371429 L9.65085716,10.2531428 L7.16771429,10.4862857 C6.674,10.5274286 6.27628571,10.5548571 5.93342858,10.5548571 C5.82371429,10.5548571 5.75514287,10.5548571 5.60428571,10.5411428 L5.60428571,10.5411428 L5.70028571,12.0497143 C6.098,11.9674286 6.34485716,11.9262857 7.27742858,11.844 L7.27742858,11.844 L9.65085716,11.6108571 L9.65085716,13.1614286 L6.56428571,13.4357143 C6.16657145,13.4631428 5.57685716,13.5042857 5.35657145,13.5042857 C5.23314287,13.5042857 5.16457145,13.5042857 5,13.4768571 L5,13.4768571 L5.096,15.0274286 C5.64542858,14.9177143 5.91971429,14.8902857 6.674,14.8217143 L6.674,14.8217143 L9.65085716,14.5611428 L9.65085716,16.866 C9.65085716,17.5517143 9.78885716,17.9082857 10.1454286,18.114 C10.6391429,18.3882857 11.3248572,18.4842857 13.0125714,18.4842857 C15.0842857,18.4842857 16.1411429,18.3745714 16.58,18.1002857 C17.1011429,17.7711428 17.3205714,17.0442857 17.3891429,15.3977143 C16.8542857,15.3154286 16.4291429,15.1782857 15.9345714,14.9588571 L15.9345714,14.9588571 L15.9345714,15.288 C15.9345714,16.0011428 15.8797143,16.4674286 15.77,16.7014286 C15.5917143,17.0442857 15.1665714,17.1128571 13.2731429,17.1128571 L13.0569069,17.1125034 C11.3877893,17.1066459 11.1602857,17.0234057 11.1602857,16.5222857 L11.1602857,16.5222857 L11.1602857,14.4231428 L15.6877143,14.0391428 C16.1548572,13.998 16.58,13.9705714 16.868,13.9705714 C16.9914286,13.9705714 17.0737143,13.9705714 17.252,13.9842857 L17.252,13.9842857 L17.1697143,12.4482857 C16.7171429,12.5442857 16.4154286,12.5854286 15.5917143,12.6677143 L15.5917143,12.6677143 L11.1602857,13.038 L11.1602857,11.46 L14.9334286,11.0897143 C15.3585714,11.0485714 15.8934286,11.0074286 16.1548572,11.0074286 C16.2508572,11.0074286 16.3331429,11.0074286 16.484,11.0211428 L16.484,11.0211428 L16.388,9.52542855 C15.9894286,9.62142855 15.7425714,9.66257142 14.8237143,9.74485713 L14.8237143,9.74485713 L11.1602857,10.1014286 L11.1602857,8.51057142 C12.7382857,8.22257142 13.52,8.02971429 14.8922857,7.60457142 C15.0568572,7.54971429 15.1665714,7.52228571 15.2077143,7.50857142 C15.674,7.38514284 15.674,7.38514284 15.866,7.33028571 L15.866,7.33028571 Z" id="毛利icon" fill="#FFAD0A"></path>
    </g>
</svg>