<?xml version="1.0" encoding="UTF-8"?>
<svg width="22px" height="24px" viewBox="0 0 22 24" version="1.1" xmlns="http://www.w3.org/2000/svg" xmlns:xlink="http://www.w3.org/1999/xlink">
    <!-- Generator: Sketch 57 (83077) - https://sketch.com -->
    <title>已有人数icon</title>
    <desc>Created with Sketch.</desc>
    <g id="页面-1" stroke="none" stroke-width="1" fill="none" fill-rule="evenodd">
        <path d="M21,0 C21.5522847,0 22,0.44771525 22,1 L22,23 C22,23.5522847 21.5522847,24 21,24 L1,24 C0.44771525,24 0,23.5522847 0,23 L0,1 C0,0.44771525 0.44771525,0 1,0 L21,0 Z M10.9856717,6 C9.25678155,6 7.85576189,7.72720373 7.85576189,9.85677112 C7.85576189,11.1783585 9.06696178,12.7533341 9.21608263,13.0385992 C9.36552907,13.3254906 9.32938843,13.762008 9.21184994,13.8934186 C9.03472824,14.0921609 8.38647582,14.2905779 8.38647582,14.2905779 L5.99630959,15.3542231 C5.43792039,15.5539412 5,16.0799089 5,16.6745094 L5,16.9555459 C5,17.603166 5.52648124,18 6.17343129,18 L15.8255874,18 C16.4725375,18 17,17.603166 17,16.9555459 L17,16.6745094 C17.0016234,16.0795836 16.563703,15.5376775 16.0053138,15.3382847 L13.3540233,14.3065163 L13.2998033,14.2845825 C13.1639301,14.2282294 12.8085927,14.0719939 12.6520483,13.9184647 C12.5260445,13.7935596 12.5348354,13.5024396 12.6465133,13.1283747 C12.7581911,12.7546352 14.1168839,11.2362572 14.1168839,9.85677112 C14.1168839,7.72720373 12.7142363,6 10.9856717,6 Z" id="已有人数icon" fill="#FFAD0A"></path>
    </g>
</svg>