<?xml version="1.0" encoding="UTF-8"?>
<svg width="24px" height="26px" viewBox="0 0 24 26" version="1.1" xmlns="http://www.w3.org/2000/svg" xmlns:xlink="http://www.w3.org/1999/xlink">
    <!-- Generator: Sketch 57 (83077) - https://sketch.com -->
    <title>未选中状态-招聘管理icon</title>
    <desc>Created with Sketch.</desc>
    <g id="页面-1" stroke="none" stroke-width="1">
        <path d="M18.0828982,13.7253439 C18.8662207,13.7089993 19.6449668,13.8522595 20.3744719,14.146908 C21.0858914,14.4518189 21.7320967,14.8982185 22.2761927,15.4606195 C22.820433,16.0246791 23.2560124,16.6900165 23.5598543,17.4213829 L23.5598543,17.4213829 L23.5598543,17.3919715 C24.1687816,18.9385076 24.1687816,20.6689133 23.5598543,22.2154495 C22.9534599,23.6938981 21.8102078,24.8691259 20.3744719,25.4899243 C19.6525651,25.8199633 18.8725673,25.9934868 18.0828982,25.9997228 C16.5120776,26.0150809 14.9986558,25.3916218 13.8705864,24.2644472 C13.3253884,23.6991465 12.8868802,23.0342605 12.5774162,22.3036838 C12.2623755,21.5411957 12.1006369,20.7207363 12.101939,19.8919448 C12.0987692,19.0629623 12.2605836,18.242118 12.5774162,17.4802058 C12.8884154,16.7505042 13.326742,16.0858934 13.8705864,15.5194424 C14.4143074,14.9541154 15.0604493,14.5044286 15.7723073,14.1959271 C16.5034227,13.8785906 17.2896679,13.7184611 18.0828982,13.7253439 Z M11,5.68434189e-14 C11.5522847,5.67419658e-14 12,0.44771525 12,1 L12,1 L12,4 C12,5.65685425 13.3431458,7 15,7 L15,7 L18,7 C18.5522847,7 19,7.44771525 19,8 L19,8 L19,12.6959431 C18.8603079,12.6558654 18.7156235,12.6360571 18.5703435,12.6371202 L18.5703435,12.6371202 L18.1406871,12.6371202 C16.9238515,12.6217 15.7245762,12.9294775 14.6643756,13.5292675 C13.646982,14.110489 12.785691,14.9314701 12.1547912,15.9213989 L12.1547912,15.9213989 L4.78227675,15.9213989 C4.36120444,15.9157416 3.95590423,16.0820459 3.65931099,16.3821783 C3.36053785,16.6786955 3.19239728,17.082933 3.19239728,17.5047154 C3.19239728,17.9264978 3.36053785,18.3307352 3.65931099,18.6272524 C3.95558709,18.924695 4.36391143,19.0815457 4.78227675,19.0586204 L11.0122956,19.0586204 C11.0022419,19.1793234 11.0022419,19.3006585 11.0122956,19.4213616 L11.0122956,19.4213616 L11.0122956,19.8037105 C11.0096418,20.5356871 11.12168,21.2635277 11.3443029,21.9605502 C11.5610006,22.6324254 11.9374667,23.4096119 12.3234738,24 L12.3234738,24 L1,24 C0.44771525,24 6.76353751e-17,23.5522847 0,23 L0,23 L0,1 C-6.76353751e-17,0.44771525 0.44771525,5.69448719e-14 1,5.68434189e-14 L1,5.68434189e-14 Z M17.7215712,16.2743363 C17.525651,16.259028 17.3306697,16.3144859 17.1700722,16.4311974 C17.0575174,16.5113224 16.9900555,16.6431135 16.9894087,16.7841348 L16.9894087,16.7841348 L16.9894087,19.5880265 C16.8964042,19.8957207 16.9417482,20.2301761 17.1130205,20.4997815 C17.1915594,20.64846 17.3389492,20.7448285 17.5028733,20.7546807 L17.5028733,20.7546807 L20.8594107,20.7546807 C21.0256736,20.744489 21.1757874,20.6486762 21.2587721,20.4997815 C21.3751609,20.3201709 21.4349341,20.1078935 21.4299269,19.8919448 C21.4316258,19.6733845 21.3722034,19.4589491 21.2587721,19.2743043 C21.1757874,19.1254096 21.0256736,19.0295968 20.8594107,19.0194051 L20.8594107,19.0194051 L18.5107854,19.0194051 L18.5107854,16.7841348 C18.5075821,16.6362944 18.4277346,16.5015782 18.3015961,16.4311974 C18.1297242,16.315777 17.9262613,16.2607528 17.7215712,16.2743363 Z M13.9086208,9.52931019 L4.65674873,9.52931019 C4.24445243,9.52154048 3.84785535,9.69221603 3.56325923,9.99989341 C3.27232847,10.2964106 3.10860135,10.7006481 3.10860135,11.1224305 C3.10860135,11.5442129 3.27232847,11.9484503 3.56325923,12.2449675 C3.85206733,12.5450999 4.24672897,12.7114042 4.65674873,12.7057469 L4.65674873,12.7057469 L13.9086208,12.7057469 C14.3162038,12.7133273 14.7086285,12.5465151 14.9926017,12.2449675 L14.9926017,12.2449675 L14.9926017,12.2547713 C15.2840257,11.9579598 15.4424949,11.5494867 15.4299975,11.1273324 C15.4390967,10.7058049 15.2811456,10.2986673 14.9926017,9.99989341 C14.7116191,9.69271933 14.3180817,9.52187492 13.9086208,9.52931019 L13.9086208,9.52931019 Z M18,0 C18.5522847,-1.01453063e-16 19,0.44771525 19,1 L19,4 C19,4.55228475 18.5522847,5 18,5 L16.5,5 C15.1192881,5 14,3.88071187 14,2.5 L14,1 C14,0.44771525 14.4477153,1.01453063e-16 15,0 L18,0 Z" id="未选中状态-招聘管理icon"></path>
    </g>
</svg>