<?xml version="1.0" encoding="UTF-8"?>
<svg width="24px" height="24px" viewBox="0 0 24 24" version="1.1" xmlns="http://www.w3.org/2000/svg" xmlns:xlink="http://www.w3.org/1999/xlink">
    <!-- Generator: Sketch 57 (83077) - https://sketch.com -->
    <title>累计流失人数icon</title>
    <desc>Created with Sketch.</desc>
    <g id="页面-1" stroke="none" stroke-width="1" fill="none" fill-rule="evenodd">
        <path d="M12.0000342,0 C15.0983517,0 17.6100342,2.51168255 17.6100342,5.61 C17.6100342,8.56077852 15.3318641,10.9794619 12.4384524,11.2031216 L12.377,11.206 L12.4459263,11.2080422 C14.6764978,11.2911196 16.8781959,11.9954951 18.781768,13.2998496 L19.0650342,13.5 C16.6547275,13.6829181 14.5895706,15.2943495 13.826156,17.5878698 C13.0627413,19.8813901 13.7501752,22.409041 15.5700342,24 L15.5700342,24 L1.70683189e-05,24 L1.70683189e-05,23.22 C-0.007583617,18.7013196 2.52383038,14.5614589 6.54950598,12.5090295 C8.09784275,11.7196336 9.76624735,11.2905107 11.4411289,11.2126669 L11.619,11.206 L11.561616,11.2031216 C8.74053962,10.9850534 6.50432725,8.6803408 6.3942798,5.83028473 L6.39003421,5.61 C6.39003421,2.51168255 8.90171677,0 12.0000342,0 Z M22.5000342,18 C23.3284613,18 24.0000342,18.6715729 24.0000342,19.5 C24.0000342,20.3284271 23.3284613,21 22.5000342,21 L22.5000342,21 L16.5000342,21 C15.6716071,21 15.0000342,20.3284271 15.0000342,19.5 C15.0000342,18.6715729 15.6716071,18 16.5000342,18 L16.5000342,18 Z M11.7761579,11.2017792 L11.619,11.206 L11.7797495,11.2157544 C11.8528278,11.2185761 11.9262648,11.22 12.0000342,11.22 L12.2203189,11.2157544 L12.2203189,11.2157544 L12.377,11.206 L12.1111576,11.200243 C11.9995184,11.1991982 11.8878405,11.1997094 11.7761579,11.2017792 Z" id="累计流失人数icon" fill="#1588F8" fill-rule="nonzero"></path>
    </g>
</svg>