<?xml version="1.0" encoding="UTF-8"?>
<svg width="25px" height="25px" viewBox="0 0 25 25" version="1.1" xmlns="http://www.w3.org/2000/svg" xmlns:xlink="http://www.w3.org/1999/xlink">
    <!-- Generator: Sketch 57 (83077) - https://sketch.com -->
    <title>营销数据管理</title>
    <desc>Created with Sketch.</desc>
    <g id="页面-1" stroke="none" stroke-width="1">
        <path d="M11.2194206,2.12426768 C11.2407636,2.20640015 11.2515654,2.29091531 11.2515654,2.37577559 L11.2515654,12.7767908 C11.2515654,13.3199478 11.4724789,13.8397447 11.8635288,14.2167056 L19.0511862,21.1454016 C19.448812,21.5286959 19.4604254,22.1617569 19.0771282,22.55938 C19.0168809,22.621879 18.948752,22.6762671 18.8744597,22.7211727 C14.8917552,25.1284959 10.6773181,25.1664429 6.23114847,22.8350138 C1.94407605,20.2084423 -0.201324581,15.1957409 0.877412818,10.3260783 C2.21545824,5.61334812 5.25633992,2.64062882 10.0000579,1.40792039 C10.5345894,1.26901695 11.0805166,1.58973631 11.2194206,2.12426768 Z M22.4169529,7.65097977 L22.4334166,7.66892759 L22.4334166,7.66892759 C23.8738471,9.27811454 24.5965093,11.4409977 24.6014031,14.1575772 C24.6062753,16.8779367 23.8829228,19.043804 22.4313457,20.6551792 C22.0616919,21.065501 21.4293977,21.0984886 21.0190643,20.7288475 C21.0144869,20.724724 21.0099476,20.7205583 21.0054471,20.7163508 L14.7916818,14.9072024 C14.3882433,14.5300343 14.3669469,13.8972275 14.744115,13.493789 C14.7588139,13.4780663 14.7740166,13.4628223 14.7896992,13.4480808 L21.0034463,7.60722507 C21.4058704,7.22900888 22.0387059,7.24858471 22.4169529,7.65097977 Z M17.9105942,1.38618779 C19.68024,2.09916746 20.8868891,2.93079964 21.5305416,3.88108431 C21.8051137,4.28642683 21.7458267,4.83095751 21.3904699,5.1677275 L14.1993222,11.982746 C13.798455,12.3626459 13.1655183,12.3456487 12.7856183,11.9447816 C12.609575,11.7590223 12.5114524,11.5128371 12.5114524,11.2569118 L12.5114524,1.62467712 C12.5114331,1.14482708 12.8522697,0.732616192 13.3235751,0.642464998 C14.5626736,0.405450543 16.0916799,0.65335814 17.9105942,1.38618779 Z" id="营销数据管理"></path>
    </g>
</svg>