<svg id="图层_1" data-name="图层 1" xmlns="http://www.w3.org/2000/svg" viewBox="0 0 26 24"><defs><style>.cls-1{}</style></defs><title>点击状态-消息icon</title><g id="页面-1"><g id="点击状态-消息icon"><g id="路径"><path class="cls-1" d="M3.4,24a2.34,2.34,0,0,1-1.12-.29,2.19,2.19,0,0,1-1.21-2.24,4.61,4.61,0,0,1,.2-1c.09-.29.22-.65.39-1.09l.63-1.49A10.36,10.36,0,0,1,0,11.43C0,5.13,5.83,0,13,0S26,5.13,26,11.43,20.17,22.86,13,22.86a14.57,14.57,0,0,1-4.27-.63l-.7.25L4.79,23.71A4.61,4.61,0,0,1,3.4,24Zm.32-4.36-.21.51c-.14.36-.25.67-.33.94a2.09,2.09,0,0,0-.11.53c0,.24,0,.26.13.32s.22.11,1-.13l1-.35,3.59-1.32.3.09a12.47,12.47,0,0,0,3.95.63c6.07,0,11-4.23,11-9.43S19.07,2,13,2,2,6.23,2,11.43a8.5,8.5,0,0,0,2.2,5.66l.42.47Z"/></g><g id="路径-2" data-name="路径"><path class="cls-1" d="M5,12a2,2,0,1,0,2-2A2,2,0,0,0,5,12Z"/></g><g id="路径-3" data-name="路径"><path class="cls-1" d="M11,12a2,2,0,1,0,1-1.73A2,2,0,0,0,11,12Z"/></g><g id="路径-4" data-name="路径"><path class="cls-1" d="M17,12a2,2,0,1,0,2-2A2,2,0,0,0,17,12Z"/></g></g></g></svg>