<svg id="图层_1" data-name="图层 1" xmlns="http://www.w3.org/2000/svg" xmlns:xlink="http://www.w3.org/1999/xlink" viewBox="0 0 175.21 208.87"><defs><style>.cls-1{fill:url(#未命名的渐变_4);}.cls-2{fill:url(#未命名的渐变_4-2);}.cls-3{fill:url(#未命名的渐变_4-3);}.cls-4{fill:url(#未命名的渐变_4-4);}.cls-5{fill:url(#未命名的渐变_4-5);}.cls-6{font-size:18px;fill:#666;font-family:SourceHanSansCN-Regular-GBpc-EUC-H, Source Han Sans CN;letter-spacing:0.2em;}.cls-7{letter-spacing:-0.3em;}.cls-8{mask:url(#mask);}.cls-9{opacity:0.64;}.cls-10{isolation:isolate;}.cls-11{fill:url(#未命名的渐变_16);}.cls-12{mask:url(#mask-2);}.cls-13{fill:url(#未命名的渐变_16-2);}.cls-14{fill:url(#未命名的渐变_109);}.cls-15,.cls-37{opacity:0.6;}.cls-16,.cls-31,.cls-32{fill:#5e8bff;}.cls-16{opacity:0.5;}.cls-17,.cls-37{fill:#638df8;}.cls-18{fill:url(#未命名的渐变_13);}.cls-19{fill:#e4aba5;}.cls-20{fill:#efc4bf;}.cls-21{fill:url(#未命名的渐变_121);}.cls-22{fill:#dc9491;}.cls-23{fill:#e6e5ef;}.cls-24{fill:#cdcdcd;}.cls-25{fill:#32507c;}.cls-26{fill:#638cc6;}.cls-27{fill:#175edd;}.cls-28{fill:#fff;}.cls-29{mask:url(#mask-3);}.cls-30{fill:url(#未命名的渐变_16-3);}.cls-31{opacity:0.2;}.cls-32{opacity:0.1;}.cls-33{fill:#afcdf9;}.cls-34{fill:url(#未命名的渐变_109-2);}.cls-35{mask:url(#mask-4);}.cls-36{fill:url(#未命名的渐变_16-4);}.cls-38{mask:url(#mask-5);}.cls-39{fill:url(#未命名的渐变_16-5);}.cls-40{fill:url(#未命名的渐变_109-3);}</style><linearGradient id="未命名的渐变_4" x1="-1005.71" y1="280.15" x2="-1005.71" y2="302.37" gradientTransform="matrix(-1, 0, 0, 1, -781.88, 0)" gradientUnits="userSpaceOnUse"><stop offset="0" stop-color="#fff"/><stop offset="1"/></linearGradient><linearGradient id="未命名的渐变_4-2" x1="-1005.71" y1="223.07" x2="-1005.71" y2="245.29" xlink:href="#未命名的渐变_4"/><linearGradient id="未命名的渐变_4-3" x1="-897.46" y1="121.73" x2="-897.46" y2="140.51" xlink:href="#未命名的渐变_4"/><linearGradient id="未命名的渐变_4-4" x1="195.69" y1="183.82" x2="195.69" y2="219.09" gradientTransform="matrix(1, 0, 0, 1, 0, 0)" xlink:href="#未命名的渐变_4"/><linearGradient id="未命名的渐变_4-5" x1="-897.46" y1="172.99" x2="-897.46" y2="191.77" xlink:href="#未命名的渐变_4"/><mask id="mask" x="103.11" y="177.7" width="13" height="38.3" maskUnits="userSpaceOnUse"><g transform="translate(-114.22 -95.87)"><polygon class="cls-1" points="223.84 273.56 230.32 277.33 230.32 308.09 223.81 311.86 217.33 308.09 217.33 277.33 223.84 273.56"/></g></mask><linearGradient id="未命名的渐变_16" x1="-1005.69" y1="281.09" x2="-1005.69" y2="281.09" gradientTransform="matrix(-1, 0, 0, 1, -781.88, 0)" gradientUnits="userSpaceOnUse"><stop offset="0" stop-color="#6700d7"/><stop offset="1" stop-color="#00e6ff"/></linearGradient><mask id="mask-2" x="103.11" y="120.61" width="13" height="38.3" maskUnits="userSpaceOnUse"><g transform="translate(-114.22 -95.87)"><polygon class="cls-2" points="223.84 216.48 230.32 220.24 230.32 251.01 223.81 254.78 217.33 251.01 217.33 220.24 223.84 216.48"/></g></mask><linearGradient id="未命名的渐变_16-2" x1="-1005.69" y1="224.01" x2="-1005.69" y2="224.01" xlink:href="#未命名的渐变_16"/><linearGradient id="未命名的渐变_109" x1="-1032.18" y1="252.14" x2="-1032.18" y2="252.14" gradientTransform="matrix(-1, 0, 0, 1, -781.88, 0)" gradientUnits="userSpaceOnUse"><stop offset="0" stop-color="#f89700"/><stop offset="1" stop-color="#fcf000"/></linearGradient><linearGradient id="未命名的渐变_13" x1="182.77" y1="259.94" x2="182.77" y2="244.34" gradientUnits="userSpaceOnUse"><stop offset="0" stop-color="#2754e4"/><stop offset="1" stop-color="#7cb3ff"/></linearGradient><linearGradient id="未命名的渐变_121" x1="179.99" y1="204.41" x2="186.34" y2="204.41" gradientTransform="translate(-18.17 12.09) rotate(-4.01)" gradientUnits="userSpaceOnUse"><stop offset="0.02" stop-color="#5e8bff"/><stop offset="1" stop-color="#344dd9"/></linearGradient><mask id="mask-3" x="-4.14" y="20.29" width="10.99" height="32.38" maskUnits="userSpaceOnUse"><g transform="translate(-114.22 -95.87)"><polygon class="cls-3" points="115.59 116.16 121.07 119.34 121.07 145.35 115.56 148.53 110.08 145.35 110.08 119.34 115.59 116.16"/></g></mask><linearGradient id="未命名的渐变_16-3" x1="-897.44" y1="122.52" x2="-897.44" y2="122.52" xlink:href="#未命名的渐变_16"/><linearGradient id="未命名的渐变_109-2" x1="-919.84" y1="145.3" x2="-919.84" y2="145.3" xlink:href="#未命名的渐变_109"/><mask id="mask-4" x="71.15" y="77.48" width="20.63" height="60.8" maskUnits="userSpaceOnUse"><g transform="translate(-114.22 -95.87)"><polygon class="cls-4" points="195.66 173.35 185.38 179.32 185.38 228.17 195.73 234.15 206.01 228.17 206.01 179.32 195.66 173.35"/></g></mask><linearGradient id="未命名的渐变_16-4" x1="195.73" y1="185.3" x2="195.73" y2="185.3" gradientTransform="matrix(1, 0, 0, 1, 0, 0)" xlink:href="#未命名的渐变_16"/><mask id="mask-5" x="-4.14" y="71.55" width="10.99" height="32.38" maskUnits="userSpaceOnUse"><g transform="translate(-114.22 -95.87)"><polygon class="cls-5" points="115.59 167.41 121.07 170.6 121.07 196.6 115.56 199.79 110.08 196.6 110.08 170.59 115.59 167.41"/></g></mask><linearGradient id="未命名的渐变_16-5" x1="-897.44" y1="173.78" x2="-897.44" y2="173.78" xlink:href="#未命名的渐变_16"/><linearGradient id="未命名的渐变_109-3" x1="-912.26" y1="205.14" x2="-912.26" y2="205.14" xlink:href="#未命名的渐变_109"/></defs><title>缺省页</title><text class="cls-6" transform="translate(38.1 190)">暂无数据<tspan class="cls-7" x="86.4" y="0">！</tspan></text><g class="cls-8"><g class="cls-9"><g class="cls-10"><path class="cls-11" d="M223.8,281.09" transform="translate(-114.22 -95.87)"/></g></g></g><g class="cls-12"><g class="cls-9"><g class="cls-10"><path class="cls-13" d="M223.8,224" transform="translate(-114.22 -95.87)"/></g></g></g><path class="cls-14" d="M250.3,252.14" transform="translate(-114.22 -95.87)"/><g class="cls-15"><path class="cls-16" d="M209.33,247.92c.53.29.53.76,0,1L184,262.78a2.23,2.23,0,0,1-1.92,0L156.53,249c-.53-.29-.54-.76,0-1.05l25.36-13.82a2.23,2.23,0,0,1,1.92,0Z" transform="translate(-114.22 -95.87)"/><path class="cls-17" d="M209.17,243.83c.53.28.53.75,0,1l-25.36,13.82a2.23,2.23,0,0,1-1.92,0l-25.53-13.82c-.53-.29-.53-.76,0-1L181.72,230a2.25,2.25,0,0,1,1.93,0Z" transform="translate(-114.22 -95.87)"/><path class="cls-18" d="M209.57,244.39s0,0,0,0a0,0,0,0,1,0,0,.06.06,0,0,1,0,0v0l0,0,0,0,0,0,0,0-.06.06,0,0-.05,0,0,0-.05,0,0,0-25.36,13.82-.13.06h0l-.11,0h0l-.07,0-.05,0h-.13l-.15,0h-.72l-.09,0,0,0-.15,0h0l-.18-.08-25.53-13.82a1.25,1.25,0,0,1-.24-.18.49.49,0,0,1-.16-.35h0v1a.65.65,0,0,0,.4.53l25.52,13.82.19.08h0l.14,0h0l.08,0h.06l.07,0h.6l.15,0h.05l.08,0h.05l.07,0h0l.11,0h0l.12-.06,25.36-13.82h0l0,0a.1.1,0,0,0,.05,0l0,0s0,0,0,0h0v0l.06,0v0h0l0,0v0h0s0,0,0,0l0,0h0s0,0,0,0v0h0v0s0,0,0,0h0v-1Z" transform="translate(-114.22 -95.87)"/></g><g id="人物"><path id="鼻子" class="cls-19" d="M181.68,203s.68.79.54,1.14-.83.42-.83.42Z" transform="translate(-114.22 -95.87)"/><path id="脸" class="cls-20" d="M181.74,202.16a10.8,10.8,0,0,1-.11,3.33.76.76,0,0,1-.46.45l-.58.22a.55.55,0,0,0-.33.35l-.16.56L177.54,206l.13-.55Z" transform="translate(-114.22 -95.87)"/><path id="头发" class="cls-21" d="M181.68,201.37s.71.4-.24,1.35c0,0-.82.41-.78,1.05a9.22,9.22,0,0,1-1.6,2.09s-1.41.89-2.69-1.3a2.29,2.29,0,0,1,.69-3.76s.91-.7,3.37-.33C180.43,200.47,182.08,200.6,181.68,201.37Z" transform="translate(-114.22 -95.87)"/><path id="耳朵" class="cls-22" d="M180.74,203.41l.08,1c0,.17-.21.29-.39.21a.85.85,0,0,1-.5-.69C179.87,203,180.72,203.06,180.74,203.41Z" transform="translate(-114.22 -95.87)"/><path class="cls-23" d="M180.76,207.62a4.66,4.66,0,0,0-3.33-1.65c-.17,0-.43.38-.43.38Z" transform="translate(-114.22 -95.87)"/><path class="cls-24" d="M175.26,221l-1.55-3.15a2.38,2.38,0,0,1-.23-1l.06-6.64,2.57,9.32Z" transform="translate(-114.22 -95.87)"/><path class="cls-25" d="M178.48,245.55a19.45,19.45,0,0,0,4.77-.87s1.31.62.49,1.3a7.62,7.62,0,0,1-3.06,1.35.11.11,0,0,0-.08.07v.07a.22.22,0,0,1-.15.17c-.48.16-2.13.67-2.47-.07C178,247.57,177.47,245.89,178.48,245.55Z" transform="translate(-114.22 -95.87)"/><path class="cls-25" d="M183.74,247.62s3.37.49,5.14-.38a.25.25,0,0,1,.19,0c.34.06,1.3.33.32,1.19a8.81,8.81,0,0,1-3.25,1.32.25.25,0,0,0-.18.2h0a.23.23,0,0,1-.18.2c-.5.15-2,.52-2.62-.14a.23.23,0,0,1-.06-.12C183,249.52,182.78,247.73,183.74,247.62Z" transform="translate(-114.22 -95.87)"/><path class="cls-26" d="M185,228l.8,20.07a.23.23,0,0,1-.08.17,4.15,4.15,0,0,1-.93.57,1.28,1.28,0,0,1-1.81-.86c-.26-2-1-8-.68-9.2a.63.63,0,0,0,0-.36l-2-9.57.07,10.58.15,5.8a1.32,1.32,0,0,1-.84,1.21,1.46,1.46,0,0,1-1.72-.21c-1-1.05-1.09-9.57-1.1-10v0l-1.51-9.78a.23.23,0,0,1,.24-.25l3.27-.23a.17.17,0,0,1,.1,0l5.92,1.83A.21.21,0,0,1,185,228Z" transform="translate(-114.22 -95.87)"/><path class="cls-26" d="M176,226.1l2.66-.19a1,1,0,0,1,.3,0l.62.19a.65.65,0,0,1,.48.55l.14,2.07v0l.07,10.56.16,6.16a.63.63,0,0,1-.29.53c-.54.37-1.61.85-2.28.11-.94-1-1.08-9.34-1.09-9.93a.17.17,0,0,1,0-.07l-1.44-9.31A.68.68,0,0,1,176,226.1Z" transform="translate(-114.22 -95.87)"/><path class="cls-17" d="M180.72,207.82a6.69,6.69,0,0,1,2.48,1.55c.75.94,1,.73,1.14,2.45s.1,7.85.1,7.85l1,8s-2.73,2.55-7.67.8a.61.61,0,0,1-.42-.47l-.26-1.72-.25,1.41a.35.35,0,0,1-.51.21l-1.74-.95a27.14,27.14,0,0,1,.22-5.65s-.95-9-1.31-10.17a1.29,1.29,0,0,1,0-.19c-.07-.65-.24-3.84,2.93-4.24Z" transform="translate(-114.22 -95.87)"/><path class="cls-27" d="M182,208.42a7,7,0,0,0-2.41-.42s-3.14.31-3.2-1.31a5.62,5.62,0,0,0,.48-.43,7.91,7.91,0,0,1,3.82,1.26Z" transform="translate(-114.22 -95.87)"/><path class="cls-20" d="M185.83,226.29l1.8,2a.24.24,0,0,1,.07.18v.89a.35.35,0,0,1-.47.28h0a.28.28,0,0,1-.17-.15l-.27-.49a.5.5,0,0,0-.19-.19l-1.41-.84a.51.51,0,0,1-.22-.3l-.23-1a.29.29,0,0,1,.2-.33l.5-.19A.37.37,0,0,1,185.83,226.29Z" transform="translate(-114.22 -95.87)"/><path class="cls-23" d="M185.55,225.83l.16.32a.17.17,0,0,1,0,.14.75.75,0,0,1-.8.44.31.31,0,0,1-.24-.1l-.35-.42Z" transform="translate(-114.22 -95.87)"/><path class="cls-28" d="M179.79,219.91c.05-1.38.31-7.21,1.37-9.07a1.47,1.47,0,0,1,.65-.58c.74-.35,2.43-.88,2.24,1.53,0,0-.84,6.22-1.3,7.72a.79.79,0,0,0,.07.62,50.53,50.53,0,0,1,2.88,5.54c.05.59-1.85.92-1.85.92l-3.91-6.14A.89.89,0,0,1,179.79,219.91Z" transform="translate(-114.22 -95.87)"/></g><g class="cls-29"><g class="cls-9"><g class="cls-10"><path class="cls-30" d="M115.56,122.52" transform="translate(-114.22 -95.87)"/></g></g></g><path class="cls-31" d="M166.56,107.65c.76-.44,1.38-.08,1.39.79L168,133a3,3,0,0,1-1.38,2.37l-46,26.54c-.76.44-1.37.08-1.38-.79l-.07-24.53a3,3,0,0,1,1.38-2.37Z" transform="translate(-114.22 -95.87)"/><path class="cls-32" d="M161.55,102.64c.76-.44,1.38-.08,1.38.79L163,128a3,3,0,0,1-1.37,2.37l-46,26.54c-.76.44-1.38.08-1.38-.79l-.07-24.53a3,3,0,0,1,1.38-2.37Z" transform="translate(-114.22 -95.87)"/><path class="cls-33" d="M170.57,112.33c.76-.44,1.38-.09,1.38.79l.07,24.52a3,3,0,0,1-1.37,2.38l-46,26.53c-.76.44-1.38.09-1.38-.78l-.07-24.53a3,3,0,0,1,1.38-2.38Z" transform="translate(-114.22 -95.87)"/><path class="cls-34" d="M138,145.3" transform="translate(-114.22 -95.87)"/><g class="cls-35"><g class="cls-9"><g class="cls-10"><path class="cls-36" d="M195.73,185.3" transform="translate(-114.22 -95.87)"/></g></g></g><path class="cls-31" d="M278,143.42a3.11,3.11,0,0,1,1.41,2.44L279.2,227c0,.89-.64,1.26-1.42.8L207.2,187a3.13,3.13,0,0,1-1.41-2.45l.23-81.09c0-.9.64-1.26,1.42-.81Z" transform="translate(-114.22 -95.87)"/><path class="cls-32" d="M288,136.81a3.11,3.11,0,0,1,1.41,2.44l-.23,81.09c0,.9-.64,1.26-1.42.81l-70.57-40.74A3.07,3.07,0,0,1,215.8,178L216,96.87c0-.9.63-1.26,1.41-.81Z" transform="translate(-114.22 -95.87)"/><path class="cls-33" d="M269,149a3.07,3.07,0,0,1,1.41,2.44l-.22,81.1c0,.9-.64,1.26-1.42.81l-70.58-40.75a3.11,3.11,0,0,1-1.41-2.44l.23-81.1c0-.89.64-1.26,1.42-.81Z" transform="translate(-114.22 -95.87)"/><path class="cls-28" d="M233.9,149c12.36,7.14,22.36,22.13,22.33,33.5,0,10.86-9.21,14.46-20.82,8.53-1.16.53-5.56,2.38-8.1.91l-.25-.16c-1-.67-.66-1.43-.64-1.47s1.68-2.88,1.52-4.25c-9.52-7.87-16.5-19.91-16.48-29.41C211.5,145.28,221.54,141.85,233.9,149Zm2.17,27,1.33-16.9-8-4.61,1.23,18.37,5.44,3.14m0,6.61v-4.77l-5.43-3.14,0,4.77,5.44,3.14" transform="translate(-114.22 -95.87)"/><polygon class="cls-37" points="123.17 63.24 121.85 80.13 116.41 77 115.18 58.62 123.17 63.24"/><polygon class="cls-37" points="121.84 81.97 121.83 86.75 116.39 83.61 116.41 78.83 121.84 81.97"/><path class="cls-28" d="M148.45,130.53c4.88-2.82,8.85-1.5,8.86,2.95,0,4.28-3.65,9.91-8.28,12.84a10.84,10.84,0,0,1-3,4c-.19.11-.32,0-.26-.26a7.22,7.22,0,0,0,.28-2.23c-3.68,1.11-6.37-.43-6.38-4.1C139.62,139.24,143.56,133.35,148.45,130.53Z" transform="translate(-114.22 -95.87)"/><polygon class="cls-37" points="35.21 45.33 35.21 47.21 32.94 48.52 32.93 46.64 35.21 45.33"/><polygon class="cls-37" points="35.43 36.28 35.07 43.47 32.92 44.71 32.52 37.96 35.43 36.28"/><g class="cls-38"><g class="cls-9"><g class="cls-10"><path class="cls-39" d="M115.56,173.78" transform="translate(-114.22 -95.87)"/></g></g></g><path class="cls-31" d="M166.56,159.91c.76-.44,1.38-.09,1.39.79l.07,24.52a3,3,0,0,1-1.38,2.38l-46,26.53c-.76.44-1.37.09-1.38-.78l-.07-24.53a3.05,3.05,0,0,1,1.38-2.38Z" transform="translate(-114.22 -95.87)"/><path class="cls-32" d="M161.55,154.9c.76-.44,1.38-.09,1.38.79l.07,24.52a3,3,0,0,1-1.37,2.38l-46,26.53c-.76.44-1.38.09-1.38-.78l-.07-24.53a3,3,0,0,1,1.38-2.38Z" transform="translate(-114.22 -95.87)"/><path class="cls-33" d="M170.57,164.59c.76-.44,1.38-.09,1.38.78L172,189.9a3,3,0,0,1-1.37,2.38l-46,26.53c-.76.44-1.38.09-1.38-.79l-.07-24.52a3,3,0,0,1,1.38-2.38Z" transform="translate(-114.22 -95.87)"/><path class="cls-40" d="M130.38,205.14" transform="translate(-114.22 -95.87)"/><path class="cls-28" d="M148.45,182.79c4.88-2.82,8.85-1.5,8.86,3,0,4.28-3.65,9.91-8.28,12.83a10.79,10.79,0,0,1-3,4c-.19.11-.32,0-.26-.26a7.22,7.22,0,0,0,.28-2.23c-3.68,1.1-6.37-.44-6.38-4.1C139.62,191.5,143.56,185.61,148.45,182.79Z" transform="translate(-114.22 -95.87)"/><polygon class="cls-37" points="35.21 97.58 35.21 99.47 32.94 100.78 32.93 98.9 35.21 97.58"/><polygon class="cls-37" points="35.43 88.54 35.07 95.72 32.92 96.96 32.52 90.21 35.43 88.54"/></svg>