<?xml version="1.0" encoding="UTF-8"?>
<svg width="22px" height="24px" viewBox="0 0 22 24" version="1.1" xmlns="http://www.w3.org/2000/svg" xmlns:xlink="http://www.w3.org/1999/xlink">
    <!-- Generator: Sketch 57 (83077) - https://sketch.com -->
    <title>未选中状态-外包员管理icon</title>
    <desc>Created with Sketch.</desc>
    <g id="页面-1" stroke="none" stroke-width="1">
        <path d="M21,0 C21.5522847,0 22,0.44771525 22,1 L22,23 C22,23.5522847 21.5522847,24 21,24 L1,24 C0.44771525,24 0,23.5522847 0,23 L0,1 C0,0.44771525 0.44771525,0 1,0 L21,0 Z M11.0007639,12 C8.18973531,12 5.81565417,13.8109661 5.05666027,16.2939948 C4.79611013,17.1446475 5.46771454,18 6.38368586,18 L15.6162236,18 C16.5338133,18 17.2037993,17.1462141 16.9432492,16.2939948 C16.1858736,13.8109661 13.8117925,12 11.0007639,12 Z M11,6 C9.34255875,6 8,7.34255875 8,9 C8,10.6574413 9.34255875,12 11,12 C12.6574413,12 14,10.6574413 14,9 C14,7.34255875 12.6574413,6 11,6 Z" id="未选中状态-外包员管理icon"></path>
    </g>
</svg>