<?xml version="1.0" encoding="UTF-8"?>
<svg width="22px" height="24px" viewBox="0 0 22 24" version="1.1" xmlns="http://www.w3.org/2000/svg" xmlns:xlink="http://www.w3.org/1999/xlink">
    <!-- Generator: Sketch 57 (83077) - https://sketch.com -->
    <title>修改密码icon</title>
    <desc>Created with Sketch.</desc>
    <g id="页面-1" stroke="none" stroke-width="1" fill="none" fill-rule="evenodd">
        <path d="M11,0 C15.0827,0 18.412776,2.63345614 19,7 L16,7 C15.5083243,4.495963 13.2633008,3 11,3 C8.36047774,3 6,5.87324606 6,9 C5.99913368,9.47398703 5.89854362,9.5358125 6,10 L20,10 C21.1045695,10 22,10.8954305 22,12 L22,22 C22,23.1045695 21.1045695,24 20,24 L2,24 C0.8954305,24 0,23.1045695 0,22 L0,12 C0,10.8954305 0.8954305,10 2,10 L3,10 L3,9 C3,3.991926 6.50524792,0 11,0 Z M11,12 C9.34314575,12 8,13.3431458 8,15 C8,16.3062521 8.8348501,17.4175144 10.0000889,17.8293257 L10,19 C10,19.5522847 10.4477153,20 11,20 C11.5522847,20 12,19.5522847 12,19 L12.0009007,17.8289758 C13.1656226,17.4168852 14,16.3058822 14,15 C14,13.3431458 12.6568542,12 11,12 Z" id="修改密码icon" fill="#1588F8" fill-rule="nonzero"></path>
    </g>
</svg>