<?xml version="1.0" encoding="UTF-8"?>
<svg width="22px" height="24px" viewBox="0 0 22 24" version="1.1" xmlns="http://www.w3.org/2000/svg" xmlns:xlink="http://www.w3.org/1999/xlink">
    <!-- Generator: Sketch 57 (83077) - https://sketch.com -->
    <title>形状结合</title>
    <desc>Created with Sketch.</desc>
    <g id="页面-1" stroke="none" stroke-width="1">
        <path d="M1,6 L21,6 C21.5128358,6 21.9355072,6.38604019 21.9932723,6.88337887 L22,7 L22,23 C22,23.5128358 21.6139598,23.9355072 21.1166211,23.9932723 L21,24 L1,24 C0.487164161,24 0.0644928393,23.6139598 0.00672773133,23.1166211 L0,23 L0,7 C-6.28042769e-17,6.48716416 0.38604019,6.06449284 0.883378875,6.00672773 L1,6 L21,6 Z M8.00377358,10.2511496 C7.73584906,10.5860158 7.73584906,11.0812404 8.00377358,11.4161066 L8.86792453,12.5008843 L7.66792453,12.5008843 C7.33584906,12.5008843 7,12.9159297 7,13.3309751 C7,13.7460205 7.33207547,14.1657823 7.66792453,14.1657823 L9.99703313,14.1657823 L9.99703313,15.9865278 L7.66792453,15.9865278 C7.33584906,15.9865278 7,16.4015732 7,16.8213351 C7,17.2363805 7.33207547,17.6561423 7.66792453,17.6561423 L9.99703313,17.6561423 L9.99703313,19.1651928 C9.99703313,19.5802382 10.2130818,20 11,20 C11.7869182,20 12.0226936,19.5849546 12.0226936,19.1651928 L12.0226936,17.6561423 L14.3320755,17.6561423 C14.6641509,17.6561423 15,17.2410969 15,16.8213351 C15,16.4062897 14.6679245,15.9865278 14.3320755,15.9865278 L12.0226936,15.9865278 L12.0226936,14.1657823 L14.3320755,14.1657823 C14.6641509,14.1704988 15,13.7554534 15,13.3356915 C15,12.9206462 14.6679245,12.5056008 14.3320755,12.5056008 L13.1320755,12.5056008 L14,11.420823 C14.2679245,11.0859568 14.2679245,10.5860158 14,10.2558661 C13.7320755,9.92099988 12.9685028,9.92099988 12.7043518,10.2558661 L11,12.5008843 L9.27242575,10.2558661 C9.00450122,9.92099988 8.26792453,9.91628346 8.00377358,10.2511496 Z M21,0 C21.5522847,-1.01453063e-16 22,0.44771525 22,1 L22,3 C22,3.55228475 21.5522847,4 21,4 L1,4 C0.44771525,4 6.76353751e-17,3.55228475 0,3 L0,1 C-6.76353751e-17,0.44771525 0.44771525,1.01453063e-16 1,0 L21,0 Z" id="形状结合"></path>
    </g>
</svg>