<?xml version="1.0" encoding="UTF-8"?>
<svg width="25px" height="23px" viewBox="0 0 25 23" version="1.1" xmlns="http://www.w3.org/2000/svg" xmlns:xlink="http://www.w3.org/1999/xlink">
    <!-- Generator: Sketch 57 (83077) - https://sketch.com -->
    <title>形状结合</title>
    <desc>Created with Sketch.</desc>
    <g id="页面-1" stroke="none" stroke-width="1">
        <path d="M10.0842468,0.34196875 C10.933256,0.34196875 11.6215139,1.03022667 11.6215139,1.87923583 C11.6215139,2.68107782 12.2354229,3.33953366 13.0188583,3.4102206 L13.158781,3.41650291 L23.2004261,3.41650291 C23.713262,3.41650291 24.1359333,3.8025431 24.1936984,4.29988179 L24.2004261,4.41650291 L24.2004261,21.3419688 C24.2004261,21.8548046 23.8143859,22.2774759 23.3170473,22.335241 L23.2004261,22.3419688 L1.20042614,22.3419688 C0.687590297,22.3419688 0.264918976,21.9559286 0.207153868,21.4585899 L0.200426136,21.3419688 L0.200426136,1.34196875 C0.200426136,0.829132911 0.586466327,0.406461589 1.08380501,0.348696481 L1.20042614,0.34196875 L10.0842468,0.34196875 Z M6.12385348,14.4807175 C5.53254233,14.4807175 5.10249786,14.9165897 5.10249786,15.5159141 C5.10249786,16.1152385 5.53254233,16.5511108 6.12385348,16.5511108 C6.71516463,16.5511108 7.1452091,16.0607545 7.1452091,15.5159141 C7.1452091,14.9710738 6.71516463,14.4807175 6.12385348,14.4807175 Z M18.2229893,14.4807175 L10.3664076,14.4807175 C9.71169244,14.4807175 9.18792033,14.9408049 9.18792033,15.5159141 C9.18792033,16.0910234 9.71169244,16.5511108 10.3664076,16.5511108 L10.3664076,16.5511108 L18.2229893,16.5511108 C18.8777044,16.5511108 19.4014765,16.0910234 19.4014765,15.5159141 C19.4014765,14.9408049 18.8777044,14.4807175 18.2229893,14.4807175 L18.2229893,14.4807175 Z M18.2229893,8.26953733 L10.3664076,8.26953733 C9.71169244,8.26953733 9.18792033,8.72962475 9.18792033,9.30473402 C9.18792033,9.84150267 9.64418404,10.2780745 10.2373269,10.3338984 L10.3664076,10.3399307 L18.2229893,10.3399307 C18.8777044,10.3399307 19.4014765,9.87984329 19.4014765,9.30473402 C19.4014765,8.72962475 18.8777044,8.26953733 18.2229893,8.26953733 Z M6.12385348,8.26953733 C5.53254233,8.26953733 5.10249786,8.75989366 5.10249786,9.30473402 C5.10249786,9.90405842 5.53254233,10.3399307 6.12385348,10.3399307 C6.71516463,10.3399307 7.1452091,9.84957438 7.1452091,9.30473402 C7.1452091,8.75989366 6.71516463,8.26953733 6.12385348,8.26953733 Z" id="形状结合"></path>
    </g>
</svg>