<?xml version="1.0" encoding="UTF-8"?>
<svg width="24px" height="22px" viewBox="0 0 24 22" version="1.1" xmlns="http://www.w3.org/2000/svg" xmlns:xlink="http://www.w3.org/1999/xlink">
    <!-- Generator: Sketch 57 (83077) - https://sketch.com -->
    <title>待回款金额icon</title>
    <desc>Created with Sketch.</desc>
    <g id="页面-1" stroke="none" stroke-width="1" fill="none" fill-rule="evenodd">
        <path d="M19.220705,12.22222 C19.8492053,12.2216128 20.4713607,12.3477513 21.0498884,12.593081 C21.6317715,12.8819212 22.1715306,13.2121261 22.5870593,13.6657122 C23.0447122,14.1200115 23.3767068,14.6563271 23.6258813,15.2340075 C23.8757697,15.8116879 24,16.4713847 24,17.1317946 C24,17.7922045 23.8757697,18.4519013 23.6265953,19.0295817 C23.3767068,19.6486268 23.0025881,20.1435777 22.5870593,20.597877 C22.1301205,21.0100983 21.6310576,21.381668 21.0491745,21.6291435 C20.4680054,21.8766189 19.8854083,22 19.221419,22 C18.5560018,22 17.9327086,21.8766189 17.3508255,21.6291435 C16.7689424,21.381668 16.2284694,21.0514631 15.8129407,20.597877 C15.3560018,20.1435777 15.0240071,19.6072621 14.7741187,19.0295817 C14.5249442,18.4519013 14.4,17.8335693 14.4,17.1317946 C14.4,16.4713847 14.5242303,15.8116879 14.7741187,15.2340075 C15.0232932,14.6142492 15.3974119,14.1200115 15.8129407,13.6657122 C16.2705935,13.2121261 16.7689424,12.8405564 17.3501116,12.593081 C17.9327086,12.3456056 18.5560018,12.22222 19.220705,12.22222 Z M19.5407435,13.4446391 C19.4054576,13.4411349 19.2739509,13.4850594 19.1739805,13.5671413 L15.7833907,16.7224586 C15.6464449,16.8038907 15.5999909,16.927101 15.5999909,17.0906734 C15.5989765,17.2524195 15.6845026,17.4047342 15.8298264,17.4999583 L19.0826833,20.5320652 C19.2196291,20.6956376 19.4030106,20.7777778 19.5863921,20.7777778 C19.9067194,20.7777778 20.1813981,20.5320652 20.1813981,20.2452826 L20.1813981,18.0735236 C21.1896027,18.0735236 22.0600744,18.688159 22.3811888,19.5074368 C22.6558675,19.098152 22.839249,18.6067269 22.7928133,18.1153018 C22.7928133,16.7217505 21.6020143,15.61569 20.1357495,15.61569 L20.1357495,13.9771343 C20.1357495,13.6903516 19.8610708,13.4446391 19.5407435,13.4446391 Z M24,7 L24.0008411,13.6834702 C22.9260374,12.0660653 21.0875152,11 19,11 C15.6862915,11 13,13.6862915 13,17 C13,18.093259 13.2923955,19.1182253 13.8032504,20.000963 L1,20 C0.44771525,20 0,19.5522847 0,19 L0,7 L24,7 Z M1,0 L23,0 C23.5128358,-9.42064153e-17 23.9355072,0.38604019 23.9932723,0.883378875 L24,1 L24,5 L0,5 L0,1 C-6.28042769e-17,0.487164161 0.38604019,0.0644928393 0.883378875,0.00672773133 L1,0 L23,0 Z" id="待回款金额icon" fill="#8C68FF" fill-rule="nonzero"></path>
    </g>
</svg>