<?xml version="1.0" encoding="UTF-8"?>
<svg width="22px" height="24px" viewBox="0 0 22 24" version="1.1" xmlns="http://www.w3.org/2000/svg" xmlns:xlink="http://www.w3.org/1999/xlink">
    <!-- Generator: Sketch 57 (83077) - https://sketch.com -->
    <title>招聘费用icon</title>
    <desc>Created with Sketch.</desc>
    <g id="页面-1" stroke="none" stroke-width="1" fill="none" fill-rule="evenodd">
        <path d="M15.9931847,4.07006683 L15.9983227,1.00167449 C15.9992475,0.44939051 15.5522826,0.000926194776 14.9999986,1.401952e-06 C14.9994404,4.67317572e-07 14.9988823,1.13685744e-13 14.9983241,1.13686838e-13 L7,1.13686838e-13 C6.44796046,0.000628130105 6.00034684,0.447960763 5.99937207,0.999999803 L5.99744427,4.07006683 L5.99744427,4.07006683 L1,4.07006683 C0.44771525,4.07006683 4.22892021e-16,4.51778208 0,5.07006683 L0,9 C1.04869017e-15,9.55228475 0.44771525,10 1,10 L20.9984185,10 C21.5507032,10 21.9984185,9.55228475 21.9984185,9 C21.9984185,8.99947324 21.998418,8.99894648 21.9984172,8.99841971 L21.9922068,5.06848654 C21.991335,4.51681952 21.5438757,4.07006683 20.992208,4.07006683 L15.9931847,4.07006683 L15.9931847,4.07006683 Z M8,2 L14,2 L14,4 L8,4 L8,2 Z M20,11 L2,11 C1.44771525,11 1,11.4477153 1,12 L1,23 C1,23.5522847 1.44771525,24 2,24 L20,24 C20.5522847,24 21,23.5522847 21,23 L21,12 C21,11.4477153 20.5522847,11 20,11 Z M8.875,13 C9.41367388,13 9.90859173,13.2965871 10.1625988,13.7716134 L11.5,16.2727273 L11.5,16.2727273 L12.8374012,13.7716134 C13.0914083,13.2965871 13.5863261,13 14.125,13 C14.4145945,13 14.6493572,13.2347627 14.6493572,13.5243572 C14.6493572,13.6106174 14.6280764,13.6955454 14.5874012,13.7716134 L13.25,16.2727273 L13.25,16.2727273 L14.1818182,16.2727273 C14.6336875,16.2727273 15,16.6390398 15,17.0909091 C15,17.5427784 14.6336875,17.9090909 14.1818182,17.9090909 L12.375,17.9090909 L12.375,17.9090909 L12.375,18.7272727 L14.1818182,18.7272727 C14.6336875,18.7272727 15,19.0935852 15,19.5454545 C15,19.9973239 14.6336875,20.3636364 14.1818182,20.3636364 L12.375,20.3636364 L12.375,20.3636364 L12.375,21.125 C12.375,21.6082492 11.9832492,22 11.5,22 C11.0167508,22 10.625,21.6082492 10.625,21.125 L10.625,20.3636364 L10.625,20.3636364 L8.81818182,20.3636364 C8.36631248,20.3636364 8,19.9973239 8,19.5454545 C8,19.0935852 8.36631248,18.7272727 8.81818182,18.7272727 L10.625,18.7272727 L10.625,18.7272727 L10.625,17.9090909 L8.81818182,17.9090909 C8.36631248,17.9090909 8,17.5427784 8,17.0909091 C8,16.6390398 8.36631248,16.2727273 8.81818182,16.2727273 L9.75,16.2727273 L9.75,16.2727273 L8.41259882,13.7716134 C8.276043,13.5162363 8.3723667,13.1985118 8.62774381,13.061956 C8.70381183,13.0212808 8.78873981,13 8.875,13 Z" id="招聘费用icon" fill="#2D64BD" fill-rule="nonzero"></path>
    </g>
</svg>