<svg id="图层_1" data-name="图层 1" xmlns="http://www.w3.org/2000/svg" viewBox="0 0 26 26"><defs><style>.cls-1{}</style></defs><title>提醒icon</title><g id="页面-1"><g id="消息icon"><path class="cls-1" d="M13.27,26H13a6,6,0,0,1-5.16-2.57H4.29A4.93,4.93,0,0,1,1.4,22.24l-.2-.19A4.72,4.72,0,0,1,0,19,4.79,4.79,0,0,1,.64,16.7,8.92,8.92,0,0,1,2,14.87l.56-.52,0,0V10.42A7.65,7.65,0,0,1,5.78,4.47a13.31,13.31,0,0,1,1.51-1A6.24,6.24,0,0,1,13,0a6.28,6.28,0,0,1,5.69,3.41,13.13,13.13,0,0,1,1.58,1.1,7.6,7.6,0,0,1,3.16,5.88v4l.53.53a7.91,7.91,0,0,1,1.58,2.23A4.55,4.55,0,0,1,26,19a4.42,4.42,0,0,1-1.43,3.34,5,5,0,0,1-3,1.12H18.18A6,6,0,0,1,13.27,26ZM13,24h.06a4,4,0,0,0,3.68-2l.29-.52h4.54a3,3,0,0,0,1.7-.64A2.41,2.41,0,0,0,24,19a2.58,2.58,0,0,0-.26-1,5.94,5.94,0,0,0-1.21-1.69,8.62,8.62,0,0,0-.76-.73l-.34-.3V10.42A5.64,5.64,0,0,0,19.07,6.1,12,12,0,0,0,17.44,5l-.29-.16L17,4.54A4.31,4.31,0,0,0,13,2h0A4.34,4.34,0,0,0,9,4.56l-.14.3L8.54,5A10.85,10.85,0,0,0,7,6.07a5.64,5.64,0,0,0-2.41,4.39v4.75l-.65.6-.54.5a6.81,6.81,0,0,0-1,1.38A2.76,2.76,0,0,0,2,19a2.6,2.6,0,0,0,.66,1.66l.1.1a2.9,2.9,0,0,0,1.61.64H9l.28.52A4,4,0,0,0,13,24Z" transform="translate(0 0)"/></g></g></svg>