<?xml version="1.0" encoding="UTF-8"?>
<svg width="16px" height="16px" viewBox="0 0 16 16" version="1.1" xmlns="http://www.w3.org/2000/svg" xmlns:xlink="http://www.w3.org/1999/xlink">
    <!-- Generator: Sketch 57 (83077) - https://sketch.com -->
    <title>主页面-保存icon</title>
    <desc>Created with Sketch.</desc>
    <g id="页面-1" stroke="none" stroke-width="1" fill="none" fill-rule="evenodd">
        <path d="M9,3 C9.55228475,3 10,3.44771525 10,4 L10,6 C10,6.55228475 9.55228475,7 9,7 C8.44771525,7 8,6.55228475 8,6 L8,4 C8,3.44771525 8.44771525,3 9,3 Z M15,0 C15.5522847,0 16,0.44771525 16,1 L16,15 C16,15.5522847 15.5522847,16 15,16 L1,16 C0.44771525,16 -2.66453526e-15,15.5522847 -2.66453526e-15,15 L-2.66453526e-15,1 C-2.66453526e-15,0.44771525 0.44771525,0 1,0 L15,0 Z M3.15502641,2 L2.36421564,2 C2.16299153,2 2,2.1630052 2,2.36424618 L2,13.63676 C2,13.8369948 2.16299153,14 2.36421564,14 L13.6357844,14 C13.8370085,14 14,13.8369948 14,13.63676 L14,2.36424618 C14,2.1630052 13.8370085,2 13.6357844,2 L12.8369246,2 L12.8369246,8.58510817 C12.8358152,9.36192579 12.206115,9.99122858 11.429362,9.99178266 L4.56158296,9.99178266 C3.78522276,9.99067427 3.15613471,9.36153346 3.15502641,8.58510817 L3.15502641,2 Z M11,2 L5,2 L5,7.44662421 C5,7.75082804 5.12875878,8 5.28692542,8 L10.7122798,8 C10.8712412,8 11,7.75082802 11,7.44662421 L11,2 Z" id="主页面-保存icon" fill="#A3B1CC" fill-rule="nonzero"></path>
    </g>
</svg>