<svg xmlns="http://www.w3.org/2000/svg" width="24" height="24" viewBox="0 0 24 24">
  <defs>
    <style>
      .cls-1 {
      }
    </style>
  </defs>
  <path id="设置icon" class="cls-1" d="M229,71a5,5,0,1,1,5-5A5,5,0,0,1,229,71Zm0-8a3,3,0,1,0,3,3A3,3,0,0,0,229,63Zm0-7,10,5V71l-10,5-10-5V61l10-5m0-2a1.177,1.177,0,0,0-.553.146l-10.894,5.49a0.988,0.988,0,0,0-.553.826V71.49a0.929,0.929,0,0,0,.553.826l10.894,5.538a1.122,1.122,0,0,0,1.106,0l10.894-5.49A0.988,0.988,0,0,0,241,71.539V60.462a0.93,0.93,0,0,0-.553-0.826L229.553,54.1A1.115,1.115,0,0,0,229,54Z" transform="translate(-217 -54)"/>
</svg>
