<?xml version="1.0" encoding="UTF-8"?>
<svg width="22px" height="24px" viewBox="0 0 22 24" version="1.1" xmlns="http://www.w3.org/2000/svg" xmlns:xlink="http://www.w3.org/1999/xlink">
    <!-- Generator: Sketch 57 (83077) - https://sketch.com -->
    <title>到账金额icon</title>
    <desc>Created with Sketch.</desc>
    <g id="页面-1" stroke="none" stroke-width="1" fill="none" fill-rule="evenodd">
        <path d="M21,0 C21.5522847,0 22,0.467181131 22,1.04347826 L22,22.9565217 C22,23.5328189 21.5522847,24 21,24 L1,24 C0.44771525,24 0,23.5328189 0,22.9565217 L0,1.04347826 C0,0.467181131 0.44771525,0 1,0 L21,0 Z M17.363961,8.87867966 C16.9734367,8.48815536 16.3402718,8.48815536 15.9497475,8.87867966 L9.58578644,15.2426407 L6.05025253,11.7071068 C5.65972824,11.3165825 5.02656326,11.3165825 4.63603897,11.7071068 C4.24551468,12.0976311 4.24551468,12.7307961 4.63603897,13.1213203 L8.87867966,17.363961 C9.26920395,17.7544853 9.90236893,17.7544853 10.2928932,17.363961 L17.363961,10.2928932 C17.7544853,9.90236893 17.7544853,9.26920395 17.363961,8.87867966 Z" id="到账金额icon" fill="#2DD15C"></path>
    </g>
</svg>