<?xml version="1.0" encoding="UTF-8"?>
<svg width="16px" height="16px" viewBox="0 0 16 16" version="1.1" xmlns="http://www.w3.org/2000/svg" xmlns:xlink="http://www.w3.org/1999/xlink">
    <!-- Generator: Sketch 57 (83077) - https://sketch.com -->
    <title>页面编辑icon</title>
    <desc>Created with Sketch.</desc>
    <g id="页面-1" stroke="none" stroke-width="1">
        <path d="M7.8488172,1 L7.8488172,2.875 L2.94330645,2.875 C2.4014587,2.875 1.9622043,3.29473305 1.9622043,3.8125 L1.9622043,13.1875 C1.9622043,13.705267 2.4014587,14.125 2.94330645,14.125 L12.754328,14.125 C13.2961757,14.125 13.7354301,13.705267 13.7354301,13.1875 L13.7354301,8.5 L15.6976344,8.5 L15.6976344,14.125 C15.6976344,15.1605339 14.8191256,16 13.7354301,16 L1.9622043,16 C0.878508789,16 0,15.1605339 0,14.125 L0,2.875 C0,1.83946609 0.878508789,1 1.9622043,1 L7.8488172,1 Z M9.21665771,2 L14.0728656,6.94974747 L10.0934546,11.0058093 L5.4010658,10.8388348 L5.23724672,6.05606184 L9.21665771,2 Z M8.94265591,5 L7.07532583,6.90329832 L7.20829595,8.8890873 L9.15716288,9.02400191 L11.0238879,7.12132034 L8.94265591,5 Z M11.1437921,0 L16,4.94974747 L14.612512,6.36396103 L9.75630415,1.41421356 L11.1437921,0 Z" id="页面编辑icon"></path>
    </g>
</svg>