<?xml version="1.0" encoding="UTF-8"?>
<svg width="24px" height="24px" viewBox="0 0 24 24" version="1.1" xmlns="http://www.w3.org/2000/svg" xmlns:xlink="http://www.w3.org/1999/xlink">
    <!-- Generator: Sketch 57 (83077) - https://sketch.com -->
    <title>二级页面-上传文件icon</title>
    <desc>Created with Sketch.</desc>
    <g id="页面-1" stroke="none" stroke-width="1">
        <path d="M0.0411568472,0.997975705 L0.00471536448,19 L0.00471536448,19 L2.49536513,6.78925528 C2.59034647,6.32359651 2.99994341,5.98911215 3.47519023,5.98911215 L18.3817144,5.98911215 C18.9339991,5.98911215 19.3817144,5.5413969 19.3817144,4.98911215 L19.3817144,3.03844871 C19.3817144,2.48706732 18.9354081,2.03972714 18.3840281,2.03845139 L9.42551154,2.01772359 C8.87413163,2.01644784 8.42782529,1.56910766 8.42782529,1.01772627 L8.42782529,1 C8.42782529,0.44771525 7.98011004,3.89074334e-16 7.42782529,0 L1.0411548,0 C0.48966042,5.45397084e-16 0.0422732345,0.446482456 0.0411568472,0.997975705 Z M23.0725714,7 C23.7490071,7.14404241 24.0414968,7.61662892 23.9952856,8 L21.3706579,23.1704764 C21.2877195,23.6498642 20.8718056,24 20.3852961,24 L0.927429604,24 C0.250983516,23.8559478 -0.0415004871,23.383357 0.00471536448,23 L3.51674468,7.77522438 C3.62142003,7.3214529 4.02546705,7 4.49115523,7 L23.0725714,7 Z M11.8356362,12.5905456 L8.98291774,15.1262953 C8.77652636,15.3097543 8.75793599,15.6257905 8.941395,15.8321819 C9.03627872,15.9389261 9.17228075,16 9.31509966,16 L11.575832,16 L11.575832,19.0226535 C11.575832,19.5624271 12.0134049,20 12.5531785,20 C13.0929521,20 13.530525,19.5624271 13.530525,19.0226535 L13.530525,16 L15.6849003,16 C15.9610427,16 16.1849003,15.7761424 16.1849003,15.5 C16.1849003,15.3571811 16.1238264,15.2211791 16.0170823,15.1262953 L13.1643638,12.5905456 C12.7854778,12.2537581 12.2145222,12.2537581 11.8356362,12.5905456 Z" id="二级页面-上传文件icon"></path>
    </g>
</svg>