<?xml version="1.0" encoding="UTF-8"?>
<svg width="24px" height="20px" viewBox="0 0 24 20" version="1.1" xmlns="http://www.w3.org/2000/svg" xmlns:xlink="http://www.w3.org/1999/xlink">
    <!-- Generator: Sketch 57 (83077) - https://sketch.com -->
    <title>二级页面-上传图片icon</title>
    <desc>Created with Sketch.</desc>
    <g id="页面-1" stroke="none" stroke-width="1" fill="none" fill-rule="evenodd">
        <path d="M22.9081862,0 C23.5106548,0 23.9990522,0.47125766 23.9990522,1.05258344 L24,11.082193 C22.8419182,10.0816679 21.312389,9.473251 19.6355881,9.473251 C16.0207762,9.473251 13.0903921,12.300797 13.0903921,15.7887517 C13.0903921,17.4067073 13.7209371,18.8825597 14.7578515,20 L1.09086601,19.9990854 C0.488397348,19.9990854 0,19.5278278 0,18.946502 L0,1.05258344 C0,0.47125766 0.488397348,0 1.09086601,0 L22.9081862,0 Z M20.4624156,12.3546607 L23.7448938,15.4489018 C23.8916918,15.5872815 23.979559,15.7563309 23.9968108,15.9335693 C24.0437341,16.4156445 23.5673406,16.8353407 22.932756,16.870987 L20.7425359,16.8867198 L20.7425359,19.093523 C20.7425359,19.5941564 20.2082996,20 19.5492857,20 C18.8902718,20 18.3560354,19.5941564 18.3560354,19.093523 L18.3560354,16.8967693 L16.1003228,16.8867198 C15.8591283,16.8752469 15.6284764,16.8074901 15.4398714,16.6927043 C14.9340144,16.3848375 14.8524673,15.8237379 15.2577309,15.4394532 L18.508674,12.3567992 C18.5654147,12.3029957 18.6296809,12.2540336 18.7003418,12.2107745 C19.2392281,11.8808647 20.0281354,11.9452847 20.4624156,12.3546607 Z M20.8888707,2 L3.11112926,2 C2.54130235,2 2.07165988,2.38604875 2.00747538,2.88339847 L2,3.00002218 L2,9.21676097 C2,9.52241976 2.15533733,9.81129366 2.42166401,10.0009602 C2.5179364,10.0695213 2.60083666,10.1270778 2.6703648,10.1736296 C2.90541557,10.3297751 3.19217751,10.469105 3.53253103,10.5916193 C3.87382475,10.7141335 4.28281309,10.8126253 4.76325686,10.8876953 C5.24182023,10.9621647 5.85483264,11 6.60041369,11 C7.70797292,11 8.65663783,10.8810891 9.44358781,10.6426668 C10.231478,10.4048451 10.9507334,10.1051657 11.6004137,9.74482977 C12.250094,9.38449382 12.8790899,8.99352931 13.4855209,8.57193625 C14.1171716,8.1362059 14.8122933,7.73985209 15.5614893,7.38823265 C16.3390372,7.02068998 17.2388116,6.70719771 18.2617525,6.4495575 C18.8086457,6.31104631 19.7194037,6.18723876 20.9940267,6.07813486 C21.5205138,6.03310729 21.9321854,5.66230763 21.9924042,5.19996286 L22,5.08260502 L22,3.00002218 C22,2.44772518 21.5025305,2 20.8888707,2 Z M7,4 C8.1045695,4 9,4.8954305 9,6 C9,7.1045695 8.1045695,8 7,8 C5.8954305,8 5,7.1045695 5,6 C5,4.8954305 5.8954305,4 7,4 Z" id="二级页面-上传图片icon" fill="#A3B1CC" fill-rule="nonzero"></path>
    </g>
</svg>