<?xml version="1.0" encoding="UTF-8"?>
<svg width="24px" height="18px" viewBox="0 0 24 18" version="1.1" xmlns="http://www.w3.org/2000/svg" xmlns:xlink="http://www.w3.org/1999/xlink">
    <!-- Generator: Sketch 57 (83077) - https://sketch.com -->
    <title>二级页面-上传证件icon</title>
    <desc>Created with Sketch.</desc>
    <g id="页面-1" stroke="none" stroke-width="1" fill="none" fill-rule="evenodd">
        <path d="M7.64161043,13.2204634 L9.8299292,15.1543641 C9.92779452,15.2408514 9.98637269,15.3465073 9.99787383,15.4572813 C10.0291561,15.7585783 9.71156039,16.0208885 9.28850399,16.0431674 L7.82835728,16.0530004 L7.82835728,17.4322524 C7.82835728,17.7451483 7.47219973,17.9988005 7.03285712,17.9988005 C6.59351452,17.9988005 6.23735696,17.7451483 6.23735696,17.4322524 L6.23735696,16.0592813 L4.73354853,16.0530004 C4.57275218,16.0458298 4.41898425,16.0034819 4.29324761,15.9317407 C3.95600959,15.739324 3.90164487,15.3886367 4.17182061,15.1484588 L6.33911598,13.2218 C6.37694312,13.1881728 6.41978727,13.1575715 6.46689456,13.1305346 C6.82615207,12.9243409 7.35209027,12.9646034 7.64161043,13.2204634 Z M23,0 C23.5522847,0 24,0.40291956 24,0.899946027 L24,17.0989745 C24,17.596001 23.5522847,17.9989205 23,17.9989205 L10.9994649,18 C11.6276991,17.2477658 12,16.3125518 12,15.2990825 C12,12.8139501 9.76142375,10.7993523 7,10.7993523 C4.23857625,10.7993523 2,12.8139501 2,15.2990825 C2,16.3125518 2.37230087,17.2477658 3.00053506,18 L1,17.9989205 C0.44771525,17.9989205 0,17.596001 0,17.0989745 L0,0.899946027 C0,0.40291956 0.44771525,0 1,0 L23,0 Z M19.666675,8.99880052 L16.33335,8.99880052 C14.4925,8.99880052 13,10.4316063 13,12.1988053 L13,12.9988005 L23,12.9988005 L23,12.1988053 C23,10.4316063 21.5075,8.99880052 19.666675,8.99880052 Z M17.9999888,1.99880052 C16.3432483,1.99880052 15,3.34204884 15,4.99878927 C15,6.6555522 16.3432483,7.99880052 17.9999888,7.99880052 C19.6567517,7.99880052 21,6.6555522 21,4.99878927 C21,3.34204884 19.6567517,1.99880052 17.9999888,1.99880052 Z M11.1666667,5.99880052 L2.83333333,5.99880052 C2.37309604,5.99880052 2,6.44651577 2,6.99880052 C2,7.55108527 2.37309604,7.99880052 2.83333333,7.99880052 L11.1666667,7.99880052 C11.626904,7.99880052 12,7.55108527 12,6.99880052 C12,6.44651577 11.626904,5.99880052 11.1666667,5.99880052 Z M7.25,1.99880052 L2.75,1.99880052 C2.33578644,1.99880052 2,2.44651577 2,2.99880052 C2,3.51163636 2.28953014,3.93430768 2.66253416,3.99207279 L2.75,3.99880052 L7.25,3.99880052 C7.66421356,3.99880052 8,3.55108527 8,2.99880052 C8,2.44651577 7.66421356,1.99880052 7.25,1.99880052 Z" id="二级页面-上传证件icon" fill="#A3B1CC" fill-rule="nonzero"></path>
    </g>
</svg>