<?xml version="1.0" encoding="UTF-8"?>
<svg width="120px" height="120px" viewBox="0 0 120 120" version="1.1" xmlns="http://www.w3.org/2000/svg" xmlns:xlink="http://www.w3.org/1999/xlink">
    <!-- Generator: Sketch 57 (83077) - https://sketch.com -->
    <title>版本</title>
    <desc>Created with Sketch.</desc>
    <g id="页面-1" stroke="none" stroke-width="1" fill="none" fill-rule="evenodd">
        <path d="M61.3476563,42.0703125 C64.4824219,44.3847656 69.2431641,42.9785156 71.9677734,38.9501953 C74.6923828,34.921875 74.3554688,29.765625 71.2207031,27.4511719 C68.0859375,25.1513672 63.3251953,26.5429688 60.6005859,30.5859375 C57.8759766,34.5996094 58.2128906,39.7412109 61.3476563,42.0703125 Z M66.1230469,86.2207031 C66.1230469,86.2207031 57.8613281,91.3916016 59.9121094,84.8583984 C59.9121094,84.8583984 60.5712891,82.0019531 62.8271484,76.0107422 C64.6289062,71.2207031 67.5732422,64.453125 71.1767578,55.4443359 C71.1767578,55.4443359 73.0664063,50.9033203 65.15625,51.7675781 C61.7431641,52.1337891 57.5537109,53.6865234 54.0966797,55.4443359 C51.492248,56.7676232 48.8696299,58.4364539 46.2288252,60.4508279 C45.7485621,60.8171 45.6562144,61.5033605 46.0225288,61.9835914 C46.1056316,62.0925375 46.2084678,62.1848963 46.3256836,62.2558594 C47.1408821,62.7493849 48.172564,62.7058201 48.9432715,62.1453507 C58.2072619,55.4080128 61.6047522,55.0835209 59.1357422,61.171875 C55.2685547,70.6933594 49.0429688,84.7412109 49.2333984,90.4541016 C49.4238281,96.1669922 59.9121094,92.7832031 59.9121094,92.7832031 C59.9121094,92.7832031 62.7246094,91.5673828 65.9326172,89.7802734 C68.3788825,88.4174751 70.9902276,86.8345704 73.7666526,85.0315593 C74.2512897,84.7168616 74.3890286,84.0688675 74.0743128,83.5842422 C74.0015736,83.4722324 73.9080621,83.3751847 73.7988281,83.2983398 C73.0322491,82.7590604 72.0205383,82.7199091 71.214576,83.1983342 L66.1230469,86.2207031 L66.1230469,86.2207031 Z M60,0 C26.8652344,0 0,26.8652344 0,60 C0,93.1347656 26.8652344,120 60,120 C93.1347656,120 120,93.1347656 120,60 C120,26.8652344 93.1347656,0 60,0 Z M94.3587319,95.3587319 C84.9176863,104.799778 72.362069,110 59,110 C45.637931,110 33.0823137,104.799778 23.6412681,95.3587319 C14.2002225,85.9176863 9,73.362069 9,60 C9,46.637931 14.2002225,34.0823137 23.6412681,24.6412681 C33.0823137,15.2002225 45.637931,10 59,10 C72.3481646,10 84.903782,15.2002225 94.3587319,24.6412681 C103.813682,34.0823137 109,46.6518354 109,60 C109,73.362069 103.799778,85.9176863 94.3587319,95.3587319 Z" id="版本" fill="#1588F8" fill-rule="nonzero"></path>
    </g>
</svg>