<?xml version="1.0" encoding="UTF-8"?>
<svg width="116px" height="121px" viewBox="0 0 116 121" version="1.1" xmlns="http://www.w3.org/2000/svg" xmlns:xlink="http://www.w3.org/1999/xlink">
    <!-- Generator: Sketch 57 (83077) - https://sketch.com -->
    <title>时间</title>
    <desc>Created with Sketch.</desc>
    <g id="页面-1" stroke="none" stroke-width="1" fill="none" fill-rule="evenodd">
        <path d="M69.9073257,1.60269511 C71.0872557,0.439539378 72.986702,0.453137588 74.1498577,1.63306756 L74.1498577,1.63306756 L88.0237843,15.7070745 C88.3935589,16.0821818 88.6580558,16.5480341 88.7906789,17.0577888 C89.2078557,18.6612631 88.2461717,20.2993243 86.6426975,20.7165011 L86.6426975,20.7165011 L67.5178355,25.6922273 C67.0083876,25.8247707 66.4730321,25.820931 65.9655377,25.6810939 C64.3682123,25.2409603 63.430123,23.5892734 63.8702567,21.991948 L63.8702567,21.991948 L65.3082625,16.7731621 C62.7963171,16.3480637 60.215583,16.1123273 57.5807455,16.1123273 C31.6072297,16.1123273 10.4697886,37.2489955 10.4697886,63.2232842 C10.4697886,89.2014374 31.6072297,110.33656 57.5807455,110.33656 C83.5588987,110.33656 104.694794,89.2014374 104.694794,63.2232842 C104.694794,56.8965412 102.15464,48.6735476 97.0743321,38.5543034 C96.9605722,38.32771 96.8759965,38.0876092 96.8226278,37.839743 C96.4738768,36.2200008 97.5042187,34.6242218 99.1239639,34.2754847 L99.1239639,34.2754847 L103.982563,33.2293667 C105.374339,32.9296996 106.785061,33.6494928 107.359229,34.9522481 C112.562283,46.7575966 115.16381,56.1812753 115.16381,63.2232842 C115.16381,95.0283779 89.3858392,120.806348 57.5807455,120.806348 C25.7802892,120.806348 0,95.0283779 0,63.2232842 C0,31.4228279 25.7802892,5.6425387 57.5799726,5.6425387 C61.1120184,5.64071688 64.6366218,5.96647489 68.108502,6.61562771 L68.108502,6.61562771 L69.1212934,2.94184706 C69.2612378,2.43421546 69.5323297,1.97236012 69.9073257,1.60269511 Z M57.5807455,37.0511312 C58.9694646,37.0511312 60.3014571,37.6020477 61.2836473,38.583803 C62.2658375,39.5655584 62.8177535,40.8973065 62.8179585,42.2860258 L62.8179585,42.2860258 L62.8179585,58.9837913 C62.8179585,60.3096667 63.3445787,61.5812552 64.2820021,62.5189027 L64.2820021,62.5189027 L82.220225,80.4614131 C83.2023219,81.4425657 83.7541377,82.7738611 83.7541377,84.1620884 C83.7541377,85.5503156 83.2023219,86.8816111 82.220225,87.8627637 C81.2400551,88.8458003 79.9085199,89.3976627 78.5203226,89.3962172 C77.1318575,89.3978685 75.8000062,88.8459903 74.8196473,87.8627637 L74.8196473,87.8627637 L53.8126964,66.8565357 C52.8749773,65.9188489 52.3481695,64.6470533 52.3481695,63.320941 L52.3481695,63.320941 L52.3481695,42.2860258 C52.3477599,40.8979215 52.8988418,39.5665189 53.8801623,38.5847635 C54.8614828,37.6030082 56.1926412,37.0511312 57.5807455,37.0511312 Z" id="时间" fill="#1588F8" fill-rule="nonzero"></path>
    </g>
</svg>