<?xml version="1.0" encoding="UTF-8"?>
<svg width="24px" height="22px" viewBox="0 0 24 22" version="1.1" xmlns="http://www.w3.org/2000/svg" xmlns:xlink="http://www.w3.org/1999/xlink">
    <!-- Generator: Sketch 57 (83077) - https://sketch.com -->
    <title>工作台icon</title>
    <desc>Created with Sketch.</desc>
    <g id="页面-1" stroke="none" stroke-width="1">
        <path d="M0,1 L0,17 C6.76353751e-17,17.5522847 0.44771525,18 1,18 L9,18 C9.55228475,18 10,18.4477153 10,19 C10,19.5522847 9.55228475,20 9,20 L7,20 C6.44771525,20 6,20.4477153 6,21 C6,21.5522847 6.44771525,22 7,22 L17,22 C17.5522847,22 18,21.5522847 18,21 C18,20.4477153 17.5522847,20 17,20 L15,20 C14.4477153,20 14,19.5522847 14,19 C14,18.4477153 14.4477153,18 15,18 L23,18 C23.5522847,18 24,17.5522847 24,17 L24,1 C24,0.44771525 23.5522847,7.86725357e-16 23,8.8817842e-16 L1,8.8817842e-16 C0.44771525,9.89631482e-16 -6.76353751e-17,0.44771525 0,1 Z M17,15 L7,15 C6.44771525,15 6,14.5522847 6,14 C6,13.4477153 6.44771525,13 7,13 L17,13 C17.5522847,13 18,13.4477153 18,14 C18,14.5522847 17.5522847,15 17,15 Z" id="工作台icon"></path>
    </g>
</svg>